<svg width="313" height="278" viewBox="0 0 313 278" fill="none" xmlns="http://www.w3.org/2000/svg">
<path d="M9.64941 82.126C12.2124 82.9021 14.4823 83.9732 16.8311 85.2614C17.1994 85.4633 17.5678 85.6652 17.9472 85.8732C22.5563 88.4603 26.8562 91.5718 30.692 95.2331C31.3922 95.8968 32.1062 96.5315 32.833 97.165C34.3181 98.4721 35.7284 99.8426 37.1205 101.25C37.3671 101.499 37.6136 101.748 37.8676 102.005C39.7646 103.942 41.4675 105.956 43.1347 108.098C43.7279 108.811 44.3228 109.523 44.9191 110.233C46.0686 111.63 47.2002 113.036 48.2896 114.48C48.6345 114.937 48.6345 114.937 48.9863 115.402C49.5795 116.46 49.7409 116.867 49.4792 118.061C48.8659 118.984 48.1344 119.781 47.3864 120.596C46.966 121.068 46.5461 121.541 46.1266 122.014C45.9183 122.247 45.71 122.48 45.4955 122.72C44.6527 123.674 43.8482 124.654 43.0465 125.643C42.7975 125.95 42.5486 126.257 42.292 126.573C41.7132 127.277 41.7132 127.277 41.3723 128.023C41.6622 127.907 41.952 127.791 42.2507 127.671C44.6376 126.728 47.0143 125.882 49.4792 125.176C49.9009 125.037 50.3225 124.897 50.757 124.754C52.1275 124.421 53.3822 124.12 54.7664 124.465C55.6053 125.226 56.0714 126.157 56.5948 127.155C56.7532 127.437 56.9115 127.718 57.0747 128.008C57.4197 128.624 57.76 129.243 58.0961 129.864C58.6752 130.927 59.2721 131.978 59.8731 133.029C63.0878 138.672 63.0878 138.672 64.2832 141.543C65.1473 143.313 66.0425 145.069 66.9371 146.824C67.9793 148.899 68.8674 150.959 69.6242 153.156C69.9726 154.135 70.4043 155.036 70.8922 155.952C71.849 157.846 72.7345 159.764 73.5798 161.711C73.706 161.99 73.8322 162.269 73.9622 162.556C75.0345 165.069 75.3123 167.422 74.3288 170.028C74.2307 170.296 74.1325 170.564 74.0314 170.841C73.9551 171.035 73.8787 171.229 73.8001 171.429C73.5675 171.429 73.3348 171.429 73.0951 171.429C73.0252 171.711 72.9552 171.993 72.8831 172.283C72.2116 174.027 71.2042 175.44 70.1431 176.966C69.9396 177.263 69.736 177.561 69.5263 177.868C68.7005 179.07 67.8724 180.244 66.9571 181.378C66.3259 182.043 66.3259 182.043 66.3981 182.814C68.9668 182.934 71.3553 182.804 73.8662 182.28C75.4547 181.957 77.0257 181.64 78.6466 181.546C78.9065 181.531 79.1664 181.516 79.4342 181.501C80.5625 181.891 81.0008 182.871 81.5546 183.881C81.9533 184.817 82.2699 185.772 82.5803 186.741C82.6697 187.013 82.7591 187.284 82.8512 187.563C83.039 188.135 83.2252 188.707 83.41 189.28C83.6886 190.143 83.9722 191.004 84.2567 191.866C85.1398 194.558 85.9633 197.241 86.6122 200.003C86.9918 201.584 87.4559 203.138 87.9212 204.695C88.0114 205.003 88.1016 205.311 88.1945 205.629C88.2828 205.926 88.3712 206.223 88.4623 206.529C88.5405 206.793 88.6186 207.056 88.6992 207.328C88.962 208.091 89.2884 208.784 89.6615 209.498C89.7418 209.238 89.8221 208.979 89.9049 208.711C90.7469 206.066 91.755 203.562 92.9219 201.048C93.0904 200.681 93.2589 200.314 93.4325 199.935C94.8206 196.927 96.2671 193.95 97.7685 190.997C99.2463 191.228 100.682 191.535 102.13 191.909C102.504 192.005 102.877 192.1 103.262 192.199C103.683 192.309 103.683 192.309 104.113 192.42C103.447 189.768 103.447 189.768 102.483 187.217C101.728 185.348 101.262 183.786 102.03 181.84C102.613 180.758 103.239 179.718 103.893 178.678C104.118 178.304 104.344 177.93 104.577 177.545C105.029 176.797 105.484 176.051 105.943 175.308C106.651 174.16 107.342 173.003 108.028 171.842C108.288 171.403 108.55 170.965 108.813 170.527C109.13 170 109.442 169.469 109.753 168.938C109.889 168.72 110.025 168.501 110.165 168.276C110.553 167.266 110.379 166.747 110.089 165.711C109.994 165.362 109.9 165.014 109.802 164.655C109.699 164.292 109.595 163.93 109.488 163.557C108.475 159.9 107.692 156.281 107.131 152.527C106.729 149.886 106.266 147.263 105.752 144.642C105.195 141.429 105.106 138.287 105.104 135.027C105.1 134.585 105.096 134.143 105.091 133.688C105.082 127.566 105.911 122.398 110.259 117.949C115.895 112.415 122.919 109.664 130.747 109.766C131.188 109.765 131.628 109.764 132.082 109.763C136.68 109.79 140.669 110.902 145 112.368C145.265 112.456 145.529 112.545 145.801 112.636C156.888 116.396 167.262 122.823 175.062 131.626C176.899 133.653 178.877 135.5 180.953 137.273C181.239 137.518 181.525 137.764 181.82 138.017C184.373 140.167 187.035 142.122 189.765 144.033C189.976 144.182 190.187 144.331 190.404 144.485C193.808 146.886 197.32 148.939 201.044 150.793C201.388 150.967 201.388 150.967 201.74 151.145C209.477 155.014 218.28 157.816 226.775 159.332C227.253 159.43 227.253 159.43 227.742 159.529C231.859 160.265 236.019 160.138 240.186 160.117C241.506 160.11 242.826 160.109 244.146 160.109C252.707 160.146 252.707 160.146 261.185 159.087C261.508 159.026 261.83 158.964 262.162 158.901C265.922 158.158 269.613 157.169 273.302 156.13C273.669 156.027 274.036 155.925 274.414 155.819C278.37 154.708 282.256 153.604 285.991 151.86C286.074 154.42 285.849 156.815 285.396 159.332C285.334 159.686 285.272 160.04 285.208 160.405C284.656 163.425 283.886 166.35 283.012 169.289C282.811 170.031 282.666 170.773 282.521 171.529C282.083 173.578 281.239 175.436 280.395 177.344C280.242 177.699 280.089 178.054 279.931 178.419C279.288 179.893 278.644 181.343 277.837 182.733C277.158 183.852 277.158 183.852 276.731 185.019C275.908 187.026 274.609 188.782 273.412 190.574C273.171 190.941 272.931 191.307 272.683 191.684C271.117 194.043 269.458 196.284 267.662 198.469C267.477 198.695 267.292 198.921 267.101 199.155C264.028 202.883 260.783 206.387 257.088 209.498C256.803 209.739 256.803 209.739 256.513 209.985C250.727 214.874 244.554 219.211 238.094 223.146C237.882 223.275 237.67 223.405 237.451 223.538C236.883 223.883 236.313 224.223 235.742 224.563C234.803 225.127 234.803 225.127 234.177 226.22C236.317 226.848 238.231 227.045 240.455 227.02C240.941 227.016 240.941 227.016 241.437 227.012C248.104 226.909 254.908 225.951 261.309 224.039C262.183 223.785 262.929 223.636 263.829 223.574C265.266 223.363 265.737 223.047 266.957 222.306C268.171 221.736 269.403 221.21 270.636 220.683C270.963 220.541 271.291 220.399 271.628 220.253C274.121 219.18 276.234 218.29 278.985 218.281C279.408 218.275 279.83 218.27 280.266 218.263C281.535 218.407 281.979 218.496 282.818 219.46C283.183 220.399 283.468 221.271 283.722 222.24C283.796 222.508 283.87 222.777 283.946 223.054C285.21 227.732 286.037 232.298 286.062 237.153C286.065 237.475 286.067 237.797 286.07 238.128C286.146 250.927 286.146 250.927 285.133 256.146C284.932 257.178 284.747 258.213 284.563 259.249C284.339 260.507 284.108 261.765 283.876 263.022C283.832 263.262 283.788 263.503 283.742 263.751C282.859 268.507 282.859 268.507 281.761 270.693C279.382 270.652 279.382 270.652 278.379 269.937C276.515 267.885 276.022 265.47 275.372 262.822C275.145 261.931 274.916 261.041 274.687 260.15C274.576 259.715 274.466 259.28 274.352 258.832C273.911 257.168 273.408 255.528 272.889 253.888C272.631 253.021 272.431 252.17 272.266 251.281C271.625 248.197 270.303 245.399 268.367 242.942C267.235 243.443 266.5 244.038 265.645 244.934C265.276 245.315 265.276 245.315 264.9 245.704C264.641 245.974 264.382 246.244 264.115 246.522C262.156 248.533 260.207 250.439 258.005 252.179C256.976 252.992 255.988 253.848 254.995 254.705C253.299 256.134 251.553 257.402 249.698 258.611C248.943 259.103 248.199 259.602 247.459 260.117C247.082 260.378 246.704 260.64 246.315 260.909C245.973 261.148 245.631 261.386 245.278 261.632C244.399 262.154 244.399 262.154 243.341 262.154C243.341 262.389 243.341 262.624 243.341 262.866C242.827 263.083 242.827 263.083 242.302 263.304C241.317 263.73 240.352 264.184 239.391 264.663C232.637 268.025 225.224 270.839 217.61 271.049C217.362 271.056 217.114 271.064 216.859 271.071C207.064 271.321 197.597 269.036 189.765 262.866C189.533 262.698 189.3 262.53 189.061 262.357C182.644 257.326 180.096 248.499 178.976 240.74C178.687 237.894 178.7 235.038 178.706 232.179C178.706 231.846 178.706 231.512 178.706 231.168C178.714 226.619 178.899 222.13 179.455 217.614C179.51 217.162 179.565 216.709 179.622 216.243C180.009 213.417 180.621 210.693 181.333 207.937C181.71 206.446 182.007 204.963 182.275 203.45C182.319 203.204 182.363 202.958 182.408 202.705C182.512 202.123 182.614 201.541 182.715 200.959C182.514 200.939 182.313 200.92 182.106 200.899C181.2 200.81 180.294 200.718 179.389 200.625C179.072 200.595 178.756 200.564 178.43 200.532C178.129 200.501 177.828 200.47 177.518 200.438C177.1 200.396 177.1 200.396 176.673 200.353C176.018 200.247 176.018 200.247 175.666 199.892C175.006 199.802 174.345 199.723 173.683 199.647C169.378 198.996 165.786 197.208 162.237 194.747C161.077 194.125 160.39 194.155 159.099 194.199C158.241 198.206 158.298 202.195 158.322 206.274C158.328 207.431 158.329 208.588 158.329 209.745C158.331 210.49 158.333 211.236 158.335 211.981C158.336 212.493 158.336 212.493 158.336 213.014C158.349 214.874 158.46 216.689 158.662 218.537C158.824 220.291 158.844 222.052 158.893 223.813C159.052 228.713 159.401 233.587 159.821 238.471C159.938 239.852 160.049 241.234 160.16 242.617C160.234 243.505 160.31 244.394 160.385 245.282C160.417 245.691 160.449 246.099 160.482 246.52C160.671 248.634 160.949 250.304 161.919 252.192C162.096 252.558 162.096 252.558 162.276 252.93C162.379 253.128 162.483 253.327 162.59 253.531C163.889 256.06 165.035 258.514 165.867 261.247C166.112 262.037 166.39 262.777 166.722 263.533C167.759 265.913 168.002 267.759 167.911 270.338C166.43 270.901 165.209 271.138 163.629 271.135C163.202 271.136 162.774 271.137 162.335 271.138C161.871 271.135 161.407 271.133 160.929 271.13C160.432 271.13 159.936 271.13 159.439 271.13C158.094 271.13 156.749 271.126 155.404 271.121C153.997 271.117 152.59 271.116 151.183 271.116C148.52 271.113 145.858 271.108 143.195 271.1C140.163 271.092 137.131 271.089 134.099 271.085C127.863 271.078 121.628 271.065 115.392 271.049C115.276 270.814 115.16 270.58 115.04 270.338C114.807 270.572 114.575 270.807 114.335 271.049C113.582 271.137 113.582 271.137 112.631 271.135C112.271 271.136 111.911 271.137 111.541 271.138C111.144 271.135 110.748 271.133 110.34 271.13C109.716 271.13 109.716 271.13 109.079 271.13C107.936 271.13 106.794 271.126 105.651 271.121C104.458 271.117 103.264 271.116 102.071 271.116C99.8101 271.113 97.5494 271.108 95.2887 271.1C92.7153 271.092 90.1418 271.089 87.5684 271.085C82.274 271.078 76.9796 271.065 71.6852 271.049C71.6383 270.668 71.5913 270.286 71.543 269.893C71.48 269.382 71.417 268.872 71.354 268.361C71.3079 267.985 71.3078 267.985 71.2608 267.602C71.0641 266.01 70.8569 264.419 70.6402 262.829C70.0376 258.406 69.4862 253.991 69.0637 249.546C68.2483 241.143 66.6851 232.844 65.1964 224.541C64.864 222.678 64.5395 220.813 64.2171 218.949C64.1626 218.635 64.108 218.322 64.0518 217.999C63.7587 216.301 63.491 214.601 63.2423 212.895C62.9175 210.748 62.4726 208.651 61.9701 206.54C61.7828 205.739 61.5961 204.937 61.4097 204.135C61.3071 203.693 61.2045 203.252 61.0987 202.797C60.711 201.117 60.3372 199.434 59.964 197.75C59.8607 197.284 59.8607 197.284 59.7553 196.809C59.4789 195.562 59.2028 194.315 58.9278 193.067C57.4748 186.48 55.8253 179.96 54.0631 173.45C53.8222 172.559 53.5824 171.668 53.3437 170.776C51.7112 164.681 49.9071 158.696 47.8091 152.746C47.2669 151.206 46.7742 149.662 46.3138 148.095C45.6416 145.841 44.7775 143.696 43.8396 141.543C43.9063 141.738 43.9731 141.933 44.0419 142.134C44.7476 144.2 45.4507 146.268 46.1523 148.335C46.4131 149.103 46.6746 149.87 46.9368 150.637C48.4444 155.05 49.8622 159.457 51.053 163.967C51.563 165.864 52.136 167.744 52.6956 169.627C54.8597 176.919 54.8597 176.919 55.6163 180.489C55.8733 181.606 56.1765 182.707 56.4778 183.813C57.2342 186.637 57.84 189.488 58.4233 192.353C58.6383 193.4 58.8546 194.446 59.0718 195.492C59.1254 195.749 59.1789 196.007 59.2341 196.273C59.6187 198.11 60.0434 199.936 60.4848 201.76C62.0203 208.134 63.0428 214.605 64.1234 221.07C64.5227 223.448 64.948 225.821 65.382 228.193C65.9093 231.087 66.3694 233.977 66.7506 236.894C66.8556 237.659 66.9607 238.424 67.0659 239.19C67.7878 244.556 68.4528 249.928 69.0857 255.306C69.1224 255.617 69.1591 255.929 69.197 256.25C69.4079 258.044 69.6164 259.839 69.8222 261.634C69.8903 262.227 69.9587 262.819 70.0276 263.412C70.1289 264.284 70.2285 265.157 70.3276 266.029C70.3581 266.289 70.3885 266.549 70.4198 266.817C70.5807 268.251 70.6278 269.596 70.6278 271.049C61.7877 271.049 52.9476 271.049 43.8396 271.049C43.4097 265.625 43.027 260.443 43.1347 255.039C46.7747 253.338 50.417 252.282 54.385 251.681C56.4341 251.303 58.4136 250.663 60.406 250.058C61.2278 249.818 62.0505 249.582 62.8733 249.346C62.8733 248.994 62.8733 248.642 62.8733 248.279C62.2346 248.115 61.5957 247.952 60.9567 247.79C60.601 247.699 60.2452 247.608 59.8787 247.514C59.2673 247.364 59.2673 247.364 58.6436 247.211C58.4086 247.153 58.1735 247.095 57.9313 247.034C55.7969 246.527 53.66 246.247 51.4839 245.988C44.187 245.073 44.187 245.073 42.0772 243.654C41.1507 240.848 41.3218 237.686 41.3723 234.759C43.3299 234.035 45.3295 233.615 47.3644 233.18C47.7229 233.102 48.0814 233.025 48.4508 232.945C49.4984 232.718 50.5462 232.493 51.5941 232.268C52.1371 232.151 52.68 232.033 53.2229 231.915C54.3247 231.676 55.4266 231.438 56.5288 231.201C53.7504 230.36 51.0664 229.694 48.1795 229.4C41.7557 228.742 41.7557 228.742 40.3148 227.287C40.1657 226.392 40.1657 226.392 40.0767 225.243C40.0403 224.811 40.004 224.38 39.9665 223.935C39.9388 223.587 39.9388 223.587 39.9106 223.231C39.5457 218.699 39.0197 214.198 38.3762 209.698C38.3225 209.317 38.3225 209.317 38.2677 208.928C37.8502 205.98 37.3667 203.052 36.8087 200.127C36.4268 198.107 36.1386 196.084 35.8869 194.043C35.6267 191.944 35.3155 189.894 34.8395 187.832C34.4004 185.83 34.1956 183.783 33.9703 181.746C33.9353 181.449 33.9003 181.152 33.8643 180.846C33.7767 179.533 33.9576 178.92 34.6752 177.811C35.0171 177.452 35.3711 177.104 35.7327 176.765C35.9703 176.539 36.2079 176.313 36.4528 176.08C38.4205 174.275 38.4205 174.275 39.2574 174.275C39.3592 174.055 39.461 173.835 39.5658 173.608C39.9624 172.852 39.9624 172.852 40.6673 172.14C40.7836 171.671 40.9 171.201 41.0198 170.717C38.1119 170.717 35.2039 170.717 32.2079 170.717C29.543 160.143 29.543 160.143 29.7406 158.265C32.774 154.984 37.6517 152.813 41.7248 151.149C41.9574 151.149 42.19 151.149 42.4297 151.149C42.4297 150.914 42.4297 150.679 42.4297 150.437C39.3988 149.527 36.3728 149.081 33.2369 148.722C31.2181 148.473 29.4387 148.195 27.6257 147.235C27.0638 146.318 26.8265 145.758 26.5683 144.745C26.4889 144.441 26.4096 144.138 26.3278 143.825C26.0598 142.734 25.8163 141.64 25.5769 140.542C25.486 140.136 25.3951 139.73 25.3015 139.312C25.0166 138.04 24.7346 136.767 24.4534 135.494C23.2556 130.073 21.9521 124.712 20.4357 119.372C19.8233 117.206 19.2904 115.026 18.7863 112.832C18.4932 111.648 18.4932 111.648 17.9601 110.57C17.421 109.362 17.1761 108.156 16.9206 106.859C16.3597 104.072 15.4897 101.436 14.5621 98.759C13.6515 96.123 12.7758 93.5393 12.2927 90.7832C11.9722 89.2716 11.3967 87.8536 10.839 86.4177C10.6126 85.8295 10.3876 85.2407 10.1644 84.6512C10.0655 84.3963 9.9666 84.1413 9.86472 83.8786C9.64941 83.1933 9.64941 83.1933 9.64941 82.126Z" fill="#68564A"/>
<path d="M201.354 0.00347449C201.8 0.00175462 201.8 0.00175462 202.254 0C205.431 0.027153 208.113 0.678742 210.937 2.1382C211.182 2.26381 211.426 2.38942 211.678 2.51883C213.436 3.45537 215.091 4.42842 216.18 6.16305C216.511 7.38607 216.511 7.38607 216.533 8.29777C216.729 8.29456 216.925 8.29135 217.128 8.28804C219.201 8.36935 220.412 8.89365 221.896 10.3616C225.907 15.3503 225.495 22.1927 225.345 28.2219C225.853 28.2107 225.853 28.2107 226.371 28.1993C239.055 27.945 239.055 27.945 244.378 29.645C244.663 29.7328 244.949 29.8206 245.242 29.911C251.046 31.7281 256.369 34.2155 261.297 37.8281C261.576 38.0299 261.855 38.2317 262.143 38.4396C268.72 43.4684 273.852 49.9797 277.509 57.4079C277.887 58.1548 278.288 58.8857 278.694 59.6173C283.343 68.0676 286.794 77.6662 288.31 87.2263C288.456 88.1022 288.621 88.9734 288.788 89.8454C288.85 90.1756 288.912 90.5058 288.977 90.846C289.096 91.4757 289.216 92.1051 289.339 92.7342C290.509 99.0658 290.665 105.336 290.645 111.762C290.641 113.159 290.645 114.555 290.649 115.951C290.653 122.812 290.452 129.652 289.143 136.404C289.017 137.087 288.892 137.771 288.767 138.455C288.709 138.772 288.651 139.089 288.591 139.416C288.39 140.572 288.247 141.732 288.107 142.897C287.988 143.691 287.863 144.484 287.733 145.276C287.679 145.666 287.679 145.666 287.624 146.064C286.903 150.912 286.903 150.912 284.91 152.553C283.456 153.315 281.906 153.737 280.331 154.171C279.633 154.381 278.935 154.591 278.237 154.803C276.358 155.36 274.47 155.877 272.576 156.379C271.627 156.632 270.682 156.895 269.737 157.163C266.815 157.983 263.881 158.67 260.901 159.241C260.607 159.299 260.313 159.357 260.01 159.417C254.314 160.452 248.421 160.305 242.655 160.324C241.796 160.328 240.938 160.335 240.079 160.346C232.663 160.436 225.563 159.784 218.427 157.64C218.065 157.533 217.703 157.427 217.329 157.317C208.748 154.749 199.993 151.462 192.564 146.343C192.048 146.001 191.532 145.658 191.015 145.316C185.062 141.334 179.722 136.756 174.588 131.756C174.301 131.477 174.015 131.198 173.719 130.911C171.988 129.193 171.988 129.193 171.263 128.257C166.108 121.633 155.629 116.312 147.888 113.655C147.258 113.437 147.258 113.437 146.616 113.213C146.155 113.058 146.155 113.058 145.685 112.899C146.15 112.782 146.616 112.664 147.095 112.544C146.932 112.431 146.77 112.318 146.602 112.202C140.874 108.065 136.536 102.176 135.042 95.1766C134.702 93.8178 134.226 92.545 133.723 91.2407C132.732 88.6552 131.94 86.0494 131.233 83.3689C131.132 83.0195 131.03 82.67 130.925 82.3099C130.105 79.3571 129.935 76.455 129.824 73.4069C129.591 73.4069 129.358 73.4069 129.119 73.4069C128.799 68.9467 128.722 64.5133 128.744 60.0426C128.746 59.4017 128.748 58.7608 128.749 58.1198C128.753 56.5741 128.759 55.0285 128.766 53.4828C128.11 53.6692 128.11 53.6692 127.44 53.8594C126.862 54.023 126.283 54.1865 125.704 54.35C125.272 54.4728 125.272 54.4728 124.832 54.5981C118.645 56.3426 112.208 56.4069 106.472 53.2382C101.95 50.2816 98.9065 45.6231 97.7482 40.3187C97.2055 34.3998 98.1944 29.7011 101.978 25.0198C102.172 24.7717 102.365 24.5235 102.565 24.2679C104.014 22.6083 105.665 21.6074 107.596 20.6169C107.942 20.4387 107.942 20.4387 108.296 20.2568C111.692 18.6117 114.924 18.5034 118.654 18.5267C119.311 18.5225 119.311 18.5225 119.981 18.5183C123.074 18.5249 126.145 18.6629 129.092 19.6846C130.241 20.06 131.323 20.2463 132.519 20.4071C132.961 20.4674 133.403 20.5277 133.858 20.5898C134.543 20.6803 134.543 20.6803 135.243 20.7726C135.697 20.8343 136.152 20.8959 136.62 20.9595C137.495 21.0779 138.37 21.194 139.246 21.3076C139.933 21.3996 140.619 21.4984 141.303 21.6114C142.649 21.8368 142.649 21.8368 143.949 21.5133C144.23 21.2787 144.23 21.2787 144.517 21.0394C151.549 16.1904 161.874 18.7765 169.653 20.0388C170.464 20.1677 171.275 20.2964 172.086 20.4251C173.579 20.6639 175.072 20.9058 176.564 21.1506C180.398 21.7793 184.215 22.2642 188.083 22.6168C190.536 22.8454 192.956 23.1692 195.384 23.5966C195.032 22.0351 195.032 22.0351 193.938 20.9644C193.645 20.8497 193.351 20.735 193.049 20.6169C190.679 19.5405 189.166 17.9642 187.63 15.8805C186.87 13.3416 186.859 10.6653 187.96 8.23106C190.935 3.02227 195.367 -0.111596 201.354 0.00347449Z" fill="#EAE4E2"/>
<path d="M9.64941 82.126C12.2124 82.9021 14.4823 83.9732 16.8311 85.2614C17.1994 85.4633 17.5678 85.6652 17.9472 85.8732C22.5563 88.4603 26.8562 91.5718 30.692 95.2331C31.3922 95.8968 32.1062 96.5315 32.833 97.165C34.3181 98.4721 35.7284 99.8426 37.1205 101.25C37.3671 101.499 37.6136 101.748 37.8676 102.005C39.7646 103.942 41.4675 105.956 43.1347 108.098C43.7279 108.811 44.3227 109.523 44.9191 110.233C46.0686 111.63 47.2002 113.036 48.2896 114.48C48.6345 114.937 48.6345 114.937 48.9863 115.402C49.5795 116.46 49.7409 116.867 49.4792 118.061C48.8659 118.984 48.1344 119.781 47.3864 120.596C46.966 121.068 46.5461 121.541 46.1266 122.014C45.9183 122.247 45.71 122.48 45.4955 122.72C44.6526 123.674 43.8482 124.654 43.0465 125.643C42.7975 125.95 42.5486 126.257 42.292 126.573C41.7132 127.277 41.7132 127.277 41.3723 128.023C41.6622 127.907 41.952 127.791 42.2507 127.671C44.6376 126.728 47.0143 125.882 49.4792 125.176C49.9009 125.037 50.3225 124.897 50.757 124.754C52.1275 124.421 53.3822 124.12 54.7664 124.465C55.6053 125.226 56.0714 126.157 56.5948 127.155C56.7532 127.437 56.9115 127.718 57.0747 128.008C57.4197 128.624 57.76 129.243 58.0961 129.864C58.6752 130.927 59.2721 131.978 59.8731 133.029C63.0878 138.672 63.0878 138.672 64.2832 141.543C65.1473 143.313 66.0425 145.069 66.9371 146.824C67.9793 148.899 68.8674 150.959 69.6242 153.156C69.9726 154.135 70.4043 155.036 70.8922 155.952C71.849 157.846 72.7345 159.764 73.5798 161.711C73.706 161.99 73.8322 162.269 73.9622 162.556C75.0345 165.069 75.3123 167.422 74.3288 170.028C74.2307 170.296 74.1325 170.564 74.0314 170.841C73.9551 171.035 73.8787 171.229 73.8001 171.429C73.5674 171.429 73.3348 171.429 73.0951 171.429C73.0252 171.711 72.9552 171.993 72.8831 172.283C72.2116 174.027 71.2042 175.44 70.1431 176.966C69.9396 177.263 69.736 177.561 69.5263 177.868C68.7005 179.07 67.8724 180.244 66.9571 181.378C66.3259 182.043 66.3259 182.043 66.3981 182.814C68.9668 182.934 71.3552 182.804 73.8662 182.28C75.4547 181.957 77.0257 181.64 78.6466 181.546C78.9065 181.531 79.1664 181.516 79.4342 181.501C80.5625 181.891 81.0008 182.871 81.5546 183.881C81.9533 184.817 82.2699 185.772 82.5803 186.741C82.6697 187.013 82.7591 187.284 82.8512 187.563C83.0389 188.135 83.2252 188.707 83.41 189.28C83.6886 190.143 83.9722 191.004 84.2566 191.866C85.1398 194.558 85.9633 197.241 86.6122 200.003C86.9918 201.584 87.4559 203.138 87.9212 204.695C88.0114 205.003 88.1015 205.311 88.1945 205.629C88.2828 205.926 88.3712 206.223 88.4623 206.529C88.5404 206.793 88.6186 207.056 88.6992 207.328C88.962 208.091 89.2884 208.784 89.6615 209.498C89.7418 209.238 89.8221 208.979 89.9049 208.711C90.7469 206.066 91.755 203.562 92.9219 201.048C93.0904 200.681 93.2589 200.314 93.4325 199.935C94.8206 196.927 96.2671 193.95 97.7685 190.997C99.2463 191.228 100.682 191.535 102.13 191.909C102.504 192.005 102.877 192.1 103.262 192.199C103.683 192.309 103.683 192.309 104.113 192.42C103.447 189.768 103.447 189.768 102.483 187.217C101.728 185.348 101.262 183.786 102.03 181.84C102.613 180.758 103.239 179.718 103.893 178.678C104.232 178.117 104.232 178.117 104.577 177.546C105.03 176.798 105.486 176.053 105.945 175.309C106.502 174.403 107.045 173.49 107.579 172.57C107.721 172.324 107.864 172.078 108.011 171.825C108.268 171.382 108.525 170.939 108.782 170.496C109.375 169.493 109.976 168.676 110.81 167.871C111.586 169.914 112.291 171.968 112.947 174.053C113.037 174.332 113.127 174.612 113.22 174.9C113.676 176.348 114.055 177.773 114.331 179.267C114.658 181.009 115.183 182.62 115.789 184.281C116.01 184.903 116.231 185.525 116.451 186.147C116.566 186.471 116.681 186.796 116.8 187.13C117.42 188.915 118.001 190.713 118.587 192.509C119.677 195.833 120.831 199.12 122.089 202.382C122.187 202.636 122.285 202.89 122.385 203.151C122.801 204.232 123.218 205.313 123.635 206.393C126.781 214.544 126.781 214.544 127.729 218.037C127.947 218.058 128.164 218.08 128.388 218.102C128.687 218.132 128.985 218.162 129.293 218.192C129.583 218.221 129.874 218.25 130.173 218.28C130.53 218.317 130.886 218.354 131.254 218.393C131.496 218.406 131.739 218.419 131.989 218.432C134.043 218.58 135.405 219.143 137.136 220.238C140.35 222.159 143.607 223.704 147.21 224.737C150.27 225.624 152.417 226.485 154.034 229.385C155.496 232.563 156.337 235.922 157.149 239.318C157.272 239.826 157.398 240.333 157.529 240.839C158.455 244.431 158.903 248.125 158.747 251.837C157.903 252.187 157.059 252.535 156.213 252.882C155.976 252.981 155.739 253.079 155.494 253.181C155.261 253.276 155.028 253.372 154.788 253.47C154.576 253.557 154.364 253.645 154.145 253.735C152.596 254.269 151.2 254.358 149.57 254.299C149.169 254.29 148.767 254.281 148.354 254.272C147.512 254.249 146.67 254.221 145.828 254.188C145.427 254.181 145.027 254.174 144.613 254.166C144.248 254.154 143.883 254.143 143.506 254.131C142.184 254.397 141.88 255.017 141.123 256.106C140.346 256.636 139.606 257.102 138.788 257.551C138.567 257.675 138.346 257.799 138.118 257.927C136.347 258.901 134.561 259.685 132.664 260.376C132.169 260.567 131.675 260.759 131.181 260.951C128.333 262.048 125.503 263.027 122.552 263.8C119.931 264.492 117.55 265.308 115.745 267.491C115.582 268.195 115.582 268.195 115.569 268.937C115.51 269.399 115.452 269.861 115.392 270.338C114.24 271.113 113.921 271.138 112.589 271.135C112.048 271.136 112.048 271.136 111.497 271.138C111.102 271.135 110.707 271.133 110.3 271.13C109.884 271.13 109.467 271.13 109.039 271.13C107.898 271.13 106.757 271.126 105.615 271.121C104.423 271.117 103.23 271.116 102.038 271.116C99.7797 271.113 97.5215 271.108 95.2633 271.1C92.6924 271.092 90.1215 271.089 87.5507 271.085C82.2622 271.078 76.9737 271.065 71.6852 271.049C71.6383 270.668 71.5913 270.286 71.543 269.893C71.48 269.382 71.417 268.872 71.354 268.361C71.3078 267.985 71.3078 267.985 71.2608 267.602C71.0641 266.01 70.8569 264.419 70.6402 262.829C70.0376 258.406 69.4862 253.991 69.0637 249.546C68.2483 241.143 66.6851 232.844 65.1964 224.541C64.864 222.678 64.5395 220.813 64.2171 218.949C64.1626 218.635 64.108 218.322 64.0518 217.999C63.7587 216.301 63.491 214.601 63.2423 212.895C62.9175 210.748 62.4726 208.651 61.9701 206.54C61.7828 205.739 61.5961 204.937 61.4097 204.135C61.3071 203.693 61.2045 203.252 61.0987 202.797C60.711 201.117 60.3372 199.434 59.964 197.75C59.8607 197.284 59.8607 197.284 59.7553 196.809C59.4789 195.562 59.2028 194.315 58.9277 193.067C57.4748 186.48 55.8253 179.96 54.0631 173.45C53.8222 172.559 53.5824 171.668 53.3437 170.776C51.7112 164.681 49.9071 158.696 47.8091 152.746C47.2669 151.206 46.7742 149.662 46.3138 148.095C45.6416 145.841 44.7775 143.696 43.8396 141.543C43.9063 141.738 43.9731 141.933 44.0418 142.134C44.7476 144.2 45.4507 146.268 46.1523 148.335C46.4131 149.103 46.6746 149.87 46.9368 150.637C48.4444 155.05 49.8622 159.457 51.053 163.967C51.563 165.864 52.136 167.744 52.6956 169.627C54.8597 176.919 54.8597 176.919 55.6163 180.489C55.8733 181.606 56.1765 182.707 56.4778 183.813C57.2342 186.637 57.84 189.488 58.4233 192.353C58.6383 193.4 58.8546 194.446 59.0718 195.492C59.1253 195.749 59.1789 196.007 59.234 196.273C59.6187 198.11 60.0434 199.936 60.4848 201.76C62.0203 208.134 63.0428 214.605 64.1234 221.07C64.5227 223.448 64.948 225.821 65.382 228.193C65.9093 231.087 66.3694 233.977 66.7506 236.894C66.8556 237.659 66.9607 238.424 67.0659 239.19C67.7878 244.556 68.4528 249.928 69.0857 255.306C69.1224 255.617 69.1591 255.929 69.197 256.25C69.4079 258.044 69.6164 259.839 69.8222 261.634C69.8903 262.227 69.9587 262.819 70.0276 263.412C70.1288 264.284 70.2285 265.157 70.3276 266.029C70.358 266.289 70.3884 266.549 70.4198 266.817C70.5807 268.251 70.6278 269.596 70.6278 271.049C61.7877 271.049 52.9476 271.049 43.8396 271.049C43.4097 265.625 43.027 260.443 43.1347 255.039C46.7747 253.338 50.417 252.282 54.385 251.681C56.4341 251.303 58.4136 250.663 60.406 250.058C61.2278 249.818 62.0505 249.582 62.8733 249.346C62.8733 248.994 62.8733 248.642 62.8733 248.279C62.2346 248.115 61.5957 247.952 60.9567 247.79C60.601 247.699 60.2452 247.608 59.8787 247.514C59.2673 247.364 59.2673 247.364 58.6436 247.211C58.4086 247.153 58.1735 247.095 57.9313 247.034C55.7969 246.527 53.66 246.247 51.4839 245.988C44.187 245.073 44.187 245.073 42.0772 243.654C41.1507 240.848 41.3218 237.686 41.3723 234.759C43.3299 234.035 45.3295 233.615 47.3644 233.18C47.7229 233.102 48.0814 233.025 48.4508 232.945C49.4983 232.718 50.5462 232.493 51.5941 232.268C52.1371 232.151 52.68 232.033 53.2229 231.915C54.3247 231.676 55.4266 231.438 56.5287 231.201C53.7504 230.36 51.0664 229.694 48.1795 229.4C41.7557 228.742 41.7557 228.742 40.3148 227.287C40.1657 226.392 40.1657 226.392 40.0766 225.243C40.0403 224.811 40.0039 224.38 39.9665 223.935C39.9388 223.587 39.9388 223.587 39.9106 223.231C39.5457 218.699 39.0197 214.198 38.3762 209.698C38.3225 209.317 38.3225 209.317 38.2677 208.928C37.8502 205.98 37.3667 203.052 36.8087 200.127C36.4268 198.107 36.1386 196.084 35.8869 194.043C35.6267 191.944 35.3155 189.894 34.8395 187.832C34.4004 185.83 34.1956 183.783 33.9703 181.746C33.9353 181.449 33.9003 181.152 33.8643 180.846C33.7767 179.533 33.9576 178.92 34.6752 177.811C35.0171 177.452 35.3711 177.104 35.7327 176.765C35.9703 176.539 36.2079 176.313 36.4528 176.08C38.4205 174.275 38.4205 174.275 39.2574 174.275C39.3592 174.055 39.461 173.835 39.5658 173.608C39.9624 172.852 39.9624 172.852 40.6673 172.14C40.7836 171.671 40.9 171.201 41.0198 170.717C38.1119 170.717 35.2039 170.717 32.2079 170.717C29.543 160.143 29.543 160.143 29.7406 158.265C32.774 154.984 37.6517 152.813 41.7247 151.149C41.9574 151.149 42.19 151.149 42.4297 151.149C42.4297 150.914 42.4297 150.679 42.4297 150.437C39.3988 149.527 36.3728 149.081 33.2369 148.722C31.2181 148.473 29.4387 148.195 27.6257 147.235C27.0638 146.318 26.8265 145.758 26.5683 144.745C26.4889 144.441 26.4096 144.138 26.3278 143.825C26.0598 142.734 25.8163 141.64 25.5769 140.542C25.486 140.136 25.3951 139.73 25.3015 139.312C25.0166 138.04 24.7346 136.767 24.4534 135.494C23.2556 130.073 21.9521 124.712 20.4357 119.372C19.8233 117.206 19.2904 115.026 18.7863 112.832C18.4932 111.648 18.4932 111.648 17.9601 110.57C17.421 109.362 17.1761 108.156 16.9206 106.859C16.3597 104.072 15.4897 101.436 14.5621 98.759C13.6515 96.123 12.7758 93.5393 12.2927 90.7832C11.9722 89.2716 11.3967 87.8536 10.839 86.4177C10.6126 85.8295 10.3876 85.2407 10.1644 84.6512C10.0655 84.3963 9.9666 84.1413 9.86472 83.8786C9.64941 83.1933 9.64941 83.1933 9.64941 82.126Z" fill="#D0743A"/>
<path d="M130.747 109.766C131.188 109.765 131.628 109.764 132.082 109.763C136.68 109.79 140.669 110.902 145 112.368C145.265 112.456 145.529 112.545 145.801 112.636C156.888 116.396 167.262 122.822 175.063 131.626C176.899 133.653 178.877 135.5 180.953 137.273C181.239 137.518 181.525 137.764 181.82 138.017C184.373 140.167 187.035 142.122 189.765 144.033C189.976 144.182 190.187 144.331 190.404 144.485C193.809 146.886 197.341 148.899 201.044 150.793C200.61 152.17 200.116 153.468 199.502 154.773C198.884 156.12 198.337 157.465 197.85 158.865C197.461 159.978 197.056 161.026 196.506 162.067C195.42 164.161 194.692 166.423 193.884 168.638C193.583 169.455 193.263 170.265 192.937 171.073C192.061 173.262 191.245 175.473 190.433 177.686C190.209 178.296 189.984 178.906 189.758 179.515C189.376 180.547 188.998 181.58 188.619 182.614C188.499 182.938 188.379 183.262 188.255 183.596C187.624 185.33 187.123 187.025 186.755 188.834C186.507 189.963 186.132 191.04 185.755 192.131C184.987 194.386 184.323 196.654 183.701 198.955C183.42 199.892 183.42 199.892 183.068 200.247C182.57 200.262 182.072 200.251 181.575 200.229C181.266 200.216 180.957 200.203 180.638 200.189C173.668 199.825 168.039 198.771 162.237 194.747C161.077 194.125 160.39 194.155 159.099 194.199C158.241 198.206 158.298 202.195 158.322 206.274C158.328 207.431 158.329 208.588 158.329 209.745C158.331 210.49 158.333 211.236 158.335 211.981C158.336 212.492 158.336 212.492 158.336 213.014C158.349 214.874 158.46 216.689 158.662 218.537C158.824 220.291 158.844 222.052 158.893 223.813C159.052 228.713 159.401 233.587 159.821 238.471C159.939 239.852 160.049 241.234 160.16 242.617C160.234 243.505 160.31 244.394 160.385 245.282C160.433 245.895 160.433 245.895 160.482 246.52C160.671 248.634 160.949 250.304 161.919 252.192C162.037 252.436 162.155 252.679 162.276 252.93C162.379 253.128 162.483 253.326 162.59 253.531C163.889 256.06 165.035 258.514 165.867 261.247C166.112 262.037 166.39 262.777 166.722 263.533C167.759 265.913 168.002 267.759 167.911 270.338C166.43 270.901 165.209 271.137 163.629 271.135C163.202 271.136 162.775 271.137 162.335 271.138C161.871 271.135 161.407 271.133 160.929 271.13C160.433 271.13 159.936 271.13 159.439 271.13C158.094 271.13 156.749 271.126 155.404 271.121C153.997 271.117 152.59 271.116 151.183 271.116C148.52 271.113 145.858 271.108 143.195 271.1C140.163 271.092 137.131 271.089 134.099 271.085C127.863 271.078 121.628 271.065 115.392 271.049C115.379 270.474 115.37 269.898 115.362 269.323C115.354 268.842 115.354 268.842 115.345 268.352C115.392 267.491 115.392 267.491 115.873 266.649C117.828 265.122 119.729 264.293 122.089 263.578C122.978 263.304 123.867 263.03 124.755 262.755C124.99 262.683 125.225 262.61 125.467 262.536C128.168 261.69 130.78 260.625 133.405 259.566C133.982 259.344 134.57 259.151 135.159 258.963C136.415 258.516 137.547 257.905 138.7 257.24C138.914 257.122 139.128 257.005 139.348 256.884C140.417 256.271 141.067 255.845 141.706 254.769C142.739 253.773 143.114 253.855 144.514 253.848C145.315 253.875 146.116 253.909 146.917 253.949C150.396 254.043 153.045 253.885 156.28 252.548C157.1 252.303 157.922 252.065 158.747 251.837C157.796 238.572 157.796 238.572 151.967 227.056C151.279 226.525 150.71 226.303 149.884 226.049C149.603 225.96 149.323 225.87 149.033 225.778C148.607 225.645 148.607 225.645 148.173 225.508C137.094 221.797 137.094 221.797 134.426 219.104C133.956 219.072 133.485 219.056 133.013 219.049C128.468 218.806 128.468 218.806 127.205 217.492C126.339 216.046 125.906 214.443 125.484 212.818C125.207 211.783 124.854 210.787 124.489 209.781C124.223 209.043 123.968 208.302 123.714 207.559C122.854 205.075 121.907 202.624 120.973 200.168C120.863 199.88 120.754 199.592 120.641 199.295C120.441 198.768 120.24 198.242 120.039 197.715C119.335 195.855 118.747 193.97 118.175 192.064C117.741 190.634 117.261 189.233 116.733 187.836C116.201 186.421 115.697 184.996 115.194 183.57C115.087 183.273 114.98 182.976 114.87 182.671C114.238 180.873 113.792 179.118 113.449 177.244C113.194 176.003 112.779 174.842 112.352 173.652C111.315 170.637 110.477 167.574 109.665 164.491C109.604 164.262 109.543 164.033 109.481 163.797C108.492 160.062 107.702 156.348 107.131 152.527C106.729 149.886 106.267 147.263 105.752 144.642C105.195 141.429 105.106 138.287 105.104 135.027C105.1 134.585 105.096 134.143 105.091 133.688C105.082 127.566 105.911 122.398 110.259 117.949C115.895 112.415 122.919 109.664 130.747 109.766Z" fill="#4F3C30"/>
<path d="M201.727 0.18365C202.172 0.18193 202.172 0.18193 202.627 0.180176C205.803 0.207329 208.485 0.858918 211.31 2.31838C211.554 2.44398 211.799 2.56959 212.051 2.69901C213.809 3.63555 215.463 4.6086 216.553 6.34322C216.883 7.56624 216.883 7.56624 216.905 8.47795C217.102 8.47474 217.298 8.47153 217.5 8.46822C219.573 8.54951 220.787 9.0717 222.267 10.5446C225.678 14.7624 225.419 20.4878 225.453 25.6447C225.456 26.0346 225.459 26.4245 225.463 26.8262C225.461 27.194 225.46 27.5617 225.458 27.9406C225.458 28.2696 225.457 28.5985 225.456 28.9375C225.361 29.8651 225.125 30.4505 224.66 31.2484C224.427 31.2484 224.194 31.2484 223.955 31.2484C223.971 31.5318 223.988 31.8152 224.004 32.1072C224.133 35.9228 224.133 35.9228 222.545 37.6525C222.254 37.9901 221.963 38.3276 221.664 38.6754C220.319 39.7445 218.832 39.6754 217.182 39.6094C215.811 39.3609 215.235 38.7795 214.438 37.6525C214.205 37.4177 213.973 37.1829 213.733 36.941C212.069 36.976 210.984 37.4097 209.525 38.2084C207.836 39.0987 206.815 39.3625 204.921 39.0757C203.985 38.5429 203.213 38.0629 202.454 37.2967C201.221 37.435 200.107 37.612 198.929 38.0083C199.036 38.3372 199.143 38.666 199.253 39.0048C199.665 40.459 199.822 41.9094 199.982 43.4102C200.352 46.8574 200.8 49.8702 202.454 52.9514C202.695 53.4313 202.937 53.9112 203.178 54.3912C206.111 60.0788 209.982 65.1542 214.085 70.0292C214.401 70.41 214.717 70.7908 215.033 71.1716C216.943 73.4621 218.912 75.6908 220.937 77.8788C221.156 78.1179 221.376 78.3571 221.602 78.6035C222.687 79.7725 223.786 80.887 224.982 81.9411C228.085 84.7122 228.085 84.7122 228.361 86.4135C228.196 87.5579 227.892 88.5196 227.48 89.5975C227.383 89.941 227.287 90.2845 227.188 90.6385C224.11 101.301 216.012 110.539 207.036 116.637C206.803 116.637 206.571 116.637 206.331 116.637C205.559 115.037 204.789 113.437 204.018 111.836C203.757 111.293 203.496 110.751 203.234 110.208C199.144 101.726 199.144 101.726 197.872 98.1587C197.259 96.4701 196.621 94.8057 195.911 93.1554C195.12 91.2746 194.513 89.3643 193.926 87.4115C193.511 86.0321 193.066 84.6756 192.562 83.3268C191.158 79.4692 190.239 75.5277 189.368 71.5191C189.234 70.912 189.234 70.912 189.097 70.2927C187.889 64.6023 187.542 59.0021 187.462 53.2C187.419 50.3159 187.374 47.5666 186.592 44.7683C183.539 45.5168 180.841 46.8811 178.067 48.3262C177.412 48.6641 176.757 49.0012 176.102 49.3376C175.51 49.6419 174.919 49.9485 174.328 50.2552C173.145 50.8429 171.945 51.3654 170.731 51.884C170.252 52.1103 169.775 52.3395 169.3 52.5734C163.184 55.5132 155.553 57.3481 148.814 55.4475C147.724 55.0358 146.725 54.583 145.705 54.0188C145.299 53.8034 145.299 53.8034 144.884 53.5838C144.325 53.2735 143.779 52.9384 143.238 52.5956C143.57 61.8224 146.993 69.6259 153.107 76.4334C153.57 76.9813 154.033 77.5297 154.495 78.0789C155.252 78.974 156.034 79.6633 156.984 80.347C156.318 83.0008 155.095 84.9455 153.46 87.107C153.067 87.6684 153.067 87.6684 152.666 88.2411C148.698 92.3374 142.2 94.8572 136.572 94.9593C136.033 94.947 136.033 94.947 135.483 94.9343C133.981 91.1782 132.62 87.4725 131.606 83.5491C131.505 83.2006 131.403 82.852 131.299 82.4929C130.477 79.5394 130.307 76.6361 130.196 73.5871C129.964 73.5871 129.731 73.5871 129.491 73.5871C129.172 69.1269 129.095 64.6935 129.117 60.2228C129.118 59.5819 129.12 58.9409 129.122 58.3C129.125 56.7543 129.131 55.2087 129.139 53.663C128.482 53.8494 128.482 53.8494 127.813 54.0396C127.234 54.2032 126.655 54.3667 126.077 54.5302C125.645 54.653 125.645 54.653 125.204 54.7783C119.018 56.5227 112.581 56.5871 106.845 53.4184C102.323 50.4618 99.279 45.8033 98.1208 40.4988C97.5781 34.58 98.5669 29.8812 102.351 25.2C102.544 24.9518 102.738 24.7037 102.937 24.4481C104.386 22.7885 106.037 21.7876 107.968 20.7971C108.315 20.6188 108.315 20.6188 108.669 20.437C112.065 18.7919 115.297 18.6836 119.027 18.7068C119.684 18.7027 119.684 18.7027 120.354 18.6985C123.446 18.705 126.517 18.8431 129.465 19.8648C130.614 20.2402 131.696 20.4265 132.892 20.5872C133.334 20.6475 133.775 20.7079 134.23 20.77C134.916 20.8605 134.916 20.8605 135.615 20.9527C136.07 21.0144 136.524 21.0761 136.992 21.1397C137.867 21.258 138.743 21.3742 139.619 21.4877C140.305 21.5798 140.991 21.6786 141.675 21.7916C143.022 22.017 143.022 22.017 144.321 21.6935C144.603 21.4589 144.603 21.4589 144.89 21.2196C151.921 16.3706 162.247 18.9567 170.026 20.2189C170.837 20.3478 171.648 20.4766 172.459 20.6053C173.952 20.844 175.444 21.0859 176.936 21.3308C180.771 21.9595 184.588 22.4443 188.456 22.797C190.909 23.0256 193.329 23.3494 195.757 23.7768C195.405 22.2153 195.405 22.2153 194.311 21.1445C194.017 21.0299 193.724 20.9152 193.422 20.7971C191.052 19.7206 189.538 18.1444 188.002 16.0607C187.243 13.5218 187.232 10.8455 188.333 8.41124C191.308 3.20245 195.74 0.0685797 201.727 0.18365Z" fill="#A56238"/>
<path d="M43.4868 140.475C44.6548 141.808 45.1484 143.341 45.7338 144.989C45.8429 145.292 45.9521 145.596 46.0645 145.908C46.7961 147.971 47.4387 150.043 48.0255 152.153C48.6979 154.533 49.4898 156.869 50.2792 159.212C51.7672 163.633 53.0605 168.066 54.1719 172.601C54.578 174.219 55.0275 175.825 55.4709 177.433C57.2517 183.964 58.7224 190.572 60.1882 197.181C60.6865 199.426 61.1901 201.67 61.7123 203.91C61.8077 204.32 61.9031 204.731 62.0014 205.153C62.1785 205.913 62.3569 206.672 62.537 207.43C63.0501 209.635 63.4414 211.836 63.7673 214.077C64.0059 215.706 64.2868 217.327 64.5692 218.948C64.629 219.294 64.6888 219.64 64.7504 219.996C65.0819 221.908 65.4192 223.819 65.7616 225.729C67.5167 235.522 69.0447 245.281 70.0982 255.173C70.2845 256.917 70.4797 258.66 70.6756 260.403C70.7745 261.286 70.8732 262.17 70.972 263.053C71.0355 263.621 71.0993 264.189 71.1631 264.757C71.2515 265.546 71.3389 266.334 71.426 267.123C71.4761 267.573 71.5262 268.023 71.5778 268.486C71.6848 269.626 71.6848 269.626 71.6848 271.049C92.7964 270.873 92.7964 270.873 114.334 270.693C114.567 270.224 114.8 269.754 115.039 269.27C115.156 269.857 115.272 270.444 115.392 271.049C121.927 271.011 128.463 270.971 134.998 270.928C138.032 270.909 141.067 270.89 144.101 270.872C146.747 270.857 149.392 270.84 152.037 270.823C153.437 270.813 154.837 270.804 156.238 270.797C157.556 270.79 158.875 270.781 160.194 270.771C160.907 270.767 161.621 270.763 162.334 270.76C162.761 270.757 163.188 270.753 163.628 270.75C164.183 270.746 164.183 270.746 164.749 270.743C165.827 270.692 166.851 270.538 167.911 270.338C167.749 266.656 166.614 263.41 165.087 260.089C164.724 259.276 164.412 258.452 164.1 257.618C163.357 255.705 162.383 253.94 161.386 252.151C160.644 250.701 160.455 249.415 160.313 247.798C160.279 247.416 160.244 247.034 160.209 246.641C160.174 246.227 160.138 245.813 160.101 245.387C160.045 244.737 160.045 244.737 159.987 244.074C159.907 243.151 159.827 242.228 159.749 241.306C159.631 239.929 159.509 238.553 159.387 237.176C158.966 232.331 158.637 227.5 158.505 222.637C158.459 220.967 158.394 219.316 158.213 217.654C158.009 215.761 157.985 213.884 157.982 211.981C157.981 211.618 157.98 211.255 157.979 210.881C157.977 210.118 157.976 209.355 157.976 208.591C157.975 207.437 157.969 206.282 157.962 205.128C157.942 197.413 157.942 197.413 158.746 194.199C159.099 193.843 159.099 193.843 160.004 193.717C161.647 193.888 162.648 194.615 164.012 195.511C167.433 197.648 170.925 199.201 174.999 199.475C175.665 199.536 175.665 199.536 176.811 199.869C178.748 200.423 180.723 200.675 182.715 200.959C182.62 203.457 182.272 205.811 181.679 208.23C181.163 210.347 180.714 212.438 180.425 214.601C180.294 215.565 180.141 216.513 179.971 217.47C178.411 226.862 178.011 237.989 180.6 247.211C180.668 247.464 180.736 247.716 180.806 247.976C182.943 255.719 187.393 261.601 194.258 265.601C205.197 271.735 217.623 271.861 229.421 268.471C233.22 267.31 236.814 265.757 240.25 263.752C241.42 263.079 241.95 262.866 243.341 262.866C243.341 262.631 243.341 262.396 243.341 262.154C243.563 262.042 243.786 261.929 244.015 261.813C248.093 259.666 251.745 256.87 255.325 253.971C255.62 253.736 255.915 253.5 256.219 253.257C260.281 249.965 264.014 246.335 267.662 242.586C269.868 243.53 270.69 245.701 271.583 247.834C272.2 249.464 272.631 251.115 273.016 252.815C273.245 253.742 273.499 254.643 273.776 255.556C274.226 257.048 274.629 258.549 275.017 260.059C275.133 260.503 275.249 260.947 275.368 261.405C275.547 262.094 275.726 262.783 275.899 263.473C276.739 267.113 276.739 267.113 278.941 269.982C279.931 270.341 280.69 270.301 281.761 270.338C281.993 269.633 282.226 268.929 282.466 268.203C282.795 269.274 282.834 269.578 282.466 270.693C282.814 270.694 283.163 270.694 283.522 270.695C286.81 270.701 290.098 270.716 293.386 270.74C295.076 270.753 296.766 270.761 298.457 270.763C300.089 270.764 301.72 270.775 303.352 270.791C303.974 270.795 304.596 270.797 305.218 270.795C306.091 270.793 306.963 270.803 307.835 270.815C308.219 270.81 308.219 270.81 308.611 270.805C310.606 270.85 311.431 271.445 312.779 272.828C313.123 273.816 313.02 274.662 312.779 275.674C312.03 276.899 311.669 277.352 310.311 277.809C309.611 277.843 308.91 277.854 308.209 277.855C307.766 277.856 307.323 277.857 306.867 277.858C306.372 277.858 305.877 277.857 305.381 277.857C304.856 277.858 304.331 277.858 303.805 277.859C302.351 277.862 300.898 277.862 299.444 277.861C297.866 277.861 296.288 277.864 294.71 277.865C291.577 277.869 288.443 277.87 285.309 277.871C281.557 277.872 277.805 277.875 274.053 277.878C264.984 277.886 255.915 277.889 246.846 277.892C242.558 277.894 238.27 277.896 233.982 277.898C219.312 277.904 204.642 277.909 189.972 277.912C189.051 277.912 188.13 277.912 187.208 277.913C186.523 277.913 186.523 277.913 185.824 277.913C183.509 277.913 181.194 277.914 178.879 277.914C178.42 277.914 177.96 277.914 177.487 277.914C162.584 277.917 147.681 277.926 132.779 277.937C117.032 277.949 101.286 277.956 85.5401 277.957C83.8128 277.958 82.0856 277.958 80.3583 277.958C79.933 277.958 79.5077 277.958 79.0695 277.958C72.2139 277.959 65.3583 277.965 58.5027 277.972C51.6171 277.979 44.7314 277.981 37.8458 277.978C33.7513 277.976 29.6568 277.978 25.5622 277.986C22.8303 277.99 20.0983 277.99 17.3663 277.985C15.8077 277.983 14.2491 277.983 12.6905 277.989C11.2737 277.994 9.8571 277.993 8.44033 277.987C7.92985 277.986 7.41937 277.987 6.9089 277.991C2.63791 278.022 2.63791 278.022 1.24768 277.153C0.258939 276.159 0.15295 275.507 0 274.118C0.132179 272.828 0.132179 272.828 0.770498 271.871C2.43915 270.651 3.9012 270.814 5.91267 270.847C6.3186 270.847 6.72453 270.847 7.14276 270.846C8.48366 270.848 9.82413 270.861 11.165 270.875C12.0949 270.879 13.0249 270.881 13.9549 270.883C16.152 270.889 18.3489 270.903 20.5459 270.921C23.0478 270.941 25.5496 270.951 28.0515 270.96C33.1966 270.978 38.3417 271.01 43.4868 271.049C43.4868 269.405 43.4868 267.762 43.4868 266.068C43.6031 266.068 43.7194 266.068 43.8392 266.068C43.8392 267.712 43.8392 269.356 43.8392 271.049C52.6793 271.049 61.5194 271.049 70.6274 271.049C70.3948 269.64 70.1622 268.231 69.9225 266.78C69.7977 265.732 69.6812 264.69 69.5824 263.64C69.555 263.362 69.5276 263.084 69.4993 262.798C69.4414 262.211 69.3841 261.623 69.3273 261.036C69.1774 259.49 69.0218 257.946 68.8664 256.401C68.8206 255.944 68.8206 255.944 68.7739 255.479C68.2082 249.861 67.5578 244.272 66.5856 238.709C66.1954 236.465 65.8676 234.216 65.5564 231.96C65.0102 228.028 64.3421 224.123 63.644 220.216C63.5517 219.697 63.5517 219.697 63.4575 219.167C63.0318 216.774 62.6013 214.381 62.168 211.988C62.0921 211.568 62.0921 211.568 62.0147 211.14C60.9176 205.074 59.6453 199.073 58.1751 193.087C57.5194 190.404 56.9399 187.705 56.3865 184.999C56.0286 183.253 56.0286 183.253 55.4668 181.569C55.1365 180.725 54.9685 179.981 54.8032 179.092C54.3684 176.783 53.7414 174.536 53.1138 172.274C52.9865 171.813 52.8593 171.353 52.732 170.893C52.4749 169.965 52.2165 169.036 51.9574 168.108C51.6381 166.963 51.3229 165.816 51.0085 164.669C49.5047 159.258 47.7009 153.959 45.8729 148.653C45.5471 147.706 45.2218 146.759 44.8967 145.812C44.751 145.388 44.6053 144.965 44.4552 144.528C44.326 144.147 44.1968 143.765 44.0637 143.371C43.8951 142.876 43.8951 142.876 43.7231 142.371C43.4868 141.542 43.4868 141.542 43.4868 140.475Z" fill="#EFDCD6"/>
<path d="M257.44 39.7874C268.437 47.967 272.085 60.6941 274.077 73.8365C274.182 74.5827 274.273 75.329 274.359 76.0777C274.391 76.3645 274.424 76.6514 274.458 76.9469C275.958 91.6259 273.593 107.662 264.287 119.521C263.864 120.031 263.864 120.031 263.432 120.551C263.278 120.738 263.124 120.925 262.966 121.118C256.896 128.402 248.547 133.132 239.088 133.972C232.951 134.409 227.637 133.107 221.84 131.225C221.84 130.99 221.84 130.755 221.84 130.513C221.59 130.48 221.341 130.447 221.084 130.413C217.702 129.554 214.778 126.483 212.323 124.109C212.076 123.883 211.83 123.657 211.576 123.424C209.573 121.523 208.135 119.333 206.683 116.993C207.95 115.657 209.296 114.526 210.759 113.413C215.059 110.051 218.469 106.259 221.487 101.694C221.643 101.461 221.798 101.228 221.958 100.987C224.43 97.2124 225.935 93.3555 227.22 89.0336C227.942 86.6384 228.776 84.2869 229.641 81.9412C230.203 80.3191 230.344 78.9615 230.346 77.2312C230.346 76.998 230.347 76.7647 230.347 76.5244C230.348 75.7677 230.346 75.011 230.343 74.2543C230.343 73.9953 230.342 73.7363 230.342 73.4694C230.338 70.6285 230.319 67.7945 230.123 64.9593C228.954 47.2129 228.954 47.2129 234.213 40.4934C240.898 33.4259 250.014 34.6301 257.44 39.7874Z" fill="#D9D8D8"/>
<path d="M116.097 186.728C116.802 187.083 116.802 187.083 117.14 187.915C117.255 188.28 117.371 188.644 117.49 189.019C117.62 189.422 117.75 189.826 117.884 190.241C118.09 190.89 118.09 190.89 118.3 191.553C118.587 192.439 118.874 193.325 119.162 194.21C119.371 194.854 119.371 194.854 119.585 195.511C120.351 197.829 121.209 200.107 122.089 202.382C122.29 202.904 122.491 203.426 122.692 203.948C123.006 204.763 123.321 205.578 123.635 206.393C126.78 214.543 126.78 214.543 127.729 218.037C127.946 218.058 128.164 218.08 128.388 218.102C128.836 218.147 128.836 218.147 129.293 218.193C129.728 218.236 129.728 218.236 130.173 218.28C130.529 218.317 130.886 218.354 131.253 218.393C131.496 218.406 131.739 218.419 131.989 218.432C134.042 218.58 135.405 219.143 137.135 220.238C140.35 222.159 143.607 223.704 147.209 224.737C150.27 225.624 152.417 226.485 154.034 229.385C155.496 232.563 156.337 235.922 157.149 239.318C157.272 239.826 157.398 240.333 157.529 240.839C158.455 244.431 158.902 248.125 158.747 251.837C157.903 252.187 157.058 252.535 156.213 252.882C155.976 252.981 155.738 253.079 155.494 253.181C155.145 253.324 155.145 253.324 154.788 253.47C154.576 253.557 154.364 253.645 154.145 253.735C152.596 254.269 151.199 254.358 149.57 254.299C149.168 254.29 148.767 254.281 148.353 254.272C147.512 254.249 146.67 254.221 145.828 254.188C145.427 254.181 145.026 254.174 144.613 254.166C144.248 254.154 143.882 254.143 143.506 254.131C142.184 254.397 141.88 255.017 141.123 256.106C140.346 256.636 139.606 257.102 138.788 257.551C138.566 257.675 138.345 257.799 138.117 257.927C136.347 258.901 134.561 259.685 132.663 260.376C132.169 260.567 131.675 260.759 131.181 260.951C128.333 262.048 125.503 263.027 122.552 263.8C119.93 264.492 117.55 265.308 115.745 267.491C115.569 268.207 115.569 268.207 115.546 268.959C115.495 269.414 115.444 269.869 115.392 270.338C114.563 270.756 114.075 270.736 113.151 270.734C112.675 270.734 112.675 270.734 112.189 270.734C111.846 270.732 111.502 270.73 111.149 270.728C110.798 270.728 110.446 270.727 110.085 270.727C108.961 270.725 107.836 270.72 106.712 270.716C105.951 270.714 105.19 270.712 104.43 270.711C102.562 270.707 100.694 270.701 98.8257 270.693C99.001 266.556 99.4597 262.498 100.05 258.402C100.192 257.414 100.329 256.425 100.466 255.436C100.87 252.563 101.297 249.772 102.124 246.987C102.528 245.485 102.667 243.952 102.835 242.408C103.738 234.925 105.295 227.625 107.09 220.313C107.495 218.655 107.858 217.003 108.166 215.324C109.996 205.651 112.993 196.057 116.097 186.728Z" fill="#B76837"/>
<path d="M192.232 25.5556C195.268 27.3498 197.047 30.7223 198.039 34.0292C198.325 35.2334 198.465 36.4195 198.576 37.6524C198.925 37.7698 199.274 37.8872 199.634 38.0082C199.401 38.0082 199.169 38.0082 198.929 38.0082C199.036 38.337 199.142 38.6658 199.253 39.0047C199.665 40.4589 199.822 41.9093 199.982 43.41C200.352 46.8572 200.8 49.87 202.454 52.9512C202.695 53.4311 202.937 53.9111 203.178 54.3911C206.111 60.0787 209.982 65.154 214.085 70.0291C214.401 70.4098 214.717 70.7906 215.033 71.1715C216.943 73.4619 218.912 75.6906 220.937 77.8786C221.156 78.1178 221.376 78.3569 221.602 78.6033C222.687 79.7724 223.786 80.8869 224.982 81.941C228.084 84.712 228.084 84.712 228.361 86.4133C228.196 87.5578 227.891 88.5194 227.48 89.5974C227.383 89.9409 227.287 90.2844 227.188 90.6383C224.11 101.301 216.012 110.539 207.036 116.637C206.803 116.637 206.571 116.637 206.331 116.637C205.559 115.037 204.789 113.437 204.018 111.836C203.757 111.293 203.495 110.75 203.234 110.208C199.144 101.725 199.144 101.725 197.872 98.1585C197.259 96.4699 196.62 94.8056 195.911 93.1552C195.12 91.2744 194.512 89.3642 193.926 87.4114C193.511 86.032 193.066 84.6754 192.562 83.3266C191.158 79.4691 190.239 75.5275 189.368 71.5189C189.279 71.1142 189.189 70.7095 189.097 70.2925C187.889 64.6022 187.542 59.002 187.462 53.1998C187.419 50.3157 187.374 47.5665 186.592 44.7681C186.127 44.6507 185.662 44.5333 185.182 44.4123C185.415 44.4123 185.648 44.4123 185.887 44.4123C185.677 43.9996 185.677 43.9996 185.462 43.5785C183.718 40.118 182.5 37.6631 182.715 33.7387C183.297 33.6213 183.878 33.5039 184.477 33.3829C185.978 35.0242 186.834 36.6494 187.65 38.7197C188.456 38.0727 188.456 38.0727 188.359 37.1326C188.321 36.7905 188.283 36.4483 188.245 36.0958C188.192 35.5854 188.192 35.5854 188.138 35.0646C188.027 34.1358 188.027 34.1358 187.823 33.4113C187.529 32.1592 187.541 30.9068 187.518 29.6249C187.504 29.3518 187.491 29.0787 187.478 28.7973C187.465 28.0003 187.465 28.0003 187.65 26.623C188.992 25.4441 190.505 25.1175 192.232 25.5556Z" fill="#F79577"/>
<path d="M160.004 193.717C161.646 193.888 162.648 194.615 164.012 195.511C167.433 197.648 170.924 199.201 174.999 199.475C175.665 199.536 175.665 199.536 176.811 199.869C178.748 200.424 180.723 200.675 182.715 200.959C182.619 203.457 182.272 205.811 181.679 208.23C181.163 210.347 180.714 212.438 180.425 214.601C180.293 215.565 180.141 216.513 179.971 217.47C178.411 226.862 178.011 237.989 180.6 247.211C180.668 247.464 180.736 247.716 180.806 247.976C182.943 255.72 187.393 261.6 194.258 265.601C197.743 267.562 201.376 268.823 205.269 269.707C205.503 269.797 205.737 269.888 205.978 269.982C206.095 270.334 206.211 270.686 206.331 271.049C193.536 271.049 180.741 271.049 167.558 271.049C167.558 269.64 167.558 268.231 167.558 266.78C167.338 265.571 167.338 265.571 166.942 264.578C166.812 264.226 166.683 263.873 166.55 263.51C166.087 262.357 165.606 261.218 165.087 260.089C164.724 259.276 164.412 258.452 164.1 257.618C163.357 255.705 162.383 253.94 161.386 252.151C160.644 250.701 160.455 249.415 160.313 247.799C160.279 247.416 160.244 247.034 160.209 246.641C160.156 246.02 160.156 246.02 160.101 245.387C160.045 244.737 160.045 244.737 159.987 244.074C159.907 243.151 159.827 242.228 159.749 241.306C159.631 239.929 159.509 238.553 159.387 237.176C158.966 232.331 158.637 227.5 158.505 222.637C158.459 220.967 158.394 219.316 158.212 217.654C158.009 215.761 157.984 213.884 157.982 211.981C157.981 211.618 157.98 211.255 157.979 210.881C157.977 210.118 157.976 209.355 157.976 208.591C157.975 207.437 157.969 206.282 157.962 205.128C157.942 197.413 157.942 197.413 158.746 194.199C159.099 193.843 159.099 193.843 160.004 193.717Z" fill="#FDFDFD"/>
<path d="M285.991 151.86C286.074 154.42 285.849 156.815 285.396 159.332C285.334 159.686 285.272 160.04 285.207 160.405C284.656 163.425 283.886 166.35 283.012 169.289C282.811 170.031 282.666 170.773 282.521 171.529C282.083 173.578 281.239 175.436 280.395 177.344C280.165 177.876 280.165 177.876 279.931 178.419C279.288 179.893 278.644 181.343 277.837 182.733C277.158 183.852 277.158 183.852 276.731 185.019C275.908 187.026 274.609 188.782 273.412 190.574C273.171 190.941 272.931 191.307 272.683 191.684C271.117 194.043 269.458 196.284 267.662 198.469C267.477 198.695 267.292 198.921 267.101 199.155C264.028 202.883 260.783 206.387 257.088 209.498C256.898 209.659 256.708 209.82 256.513 209.985C241.089 223.018 241.089 223.018 236.997 223.018C237.46 221.99 237.963 221.237 238.738 220.426C239.044 220.102 239.044 220.102 239.357 219.771C239.574 219.544 239.791 219.316 240.015 219.082C242.051 216.913 243.988 214.703 245.808 212.344C246.072 212.005 246.335 211.666 246.607 211.317C249.429 207.611 252.149 203.667 253.563 199.18C253.679 198.945 253.796 198.71 253.915 198.469C254.647 191.454 253.819 185.891 249.375 180.282C244.554 174.476 238.487 170.263 232.062 166.448C231.812 166.298 231.562 166.148 231.305 165.993C227.738 163.856 224.137 161.849 220.405 160.022C219.233 159.446 218.07 158.854 216.905 158.265C216.295 157.956 216.295 157.956 215.672 157.642C215.381 157.495 215.09 157.348 214.791 157.197C214.791 157.08 214.791 156.962 214.791 156.841C217.738 157.093 220.504 157.789 223.364 158.528C229.031 159.954 234.366 160.146 240.186 160.117C241.506 160.11 242.826 160.109 244.146 160.109C252.707 160.146 252.707 160.146 261.185 159.087C261.508 159.026 261.83 158.964 262.162 158.901C265.922 158.158 269.613 157.168 273.302 156.13C273.67 156.027 274.039 155.925 274.419 155.819C275.546 155.505 276.671 155.185 277.796 154.862C278.305 154.719 278.305 154.719 278.825 154.573C280.942 153.954 282.905 153.165 284.895 152.206C285.638 151.86 285.638 151.86 285.991 151.86Z" fill="#4D3E34"/>
<path d="M128.081 218.392C131.505 218.338 134.181 218.368 137.135 220.238C140.35 222.159 143.607 223.704 147.209 224.737C150.27 225.624 152.417 226.485 154.034 229.384C155.496 232.562 156.337 235.922 157.149 239.317C157.272 239.825 157.398 240.333 157.529 240.839C158.455 244.431 158.902 248.125 158.747 251.836C157.903 252.187 157.058 252.535 156.213 252.882C155.976 252.98 155.738 253.079 155.494 253.181C155.261 253.276 155.028 253.371 154.788 253.469C154.576 253.557 154.364 253.645 154.145 253.735C152.596 254.269 151.199 254.358 149.57 254.299C149.168 254.29 148.767 254.281 148.353 254.271C147.512 254.249 146.67 254.221 145.828 254.188C145.427 254.181 145.026 254.173 144.613 254.166C144.248 254.154 143.883 254.143 143.506 254.131C142.184 254.397 141.88 255.017 141.123 256.106C140.346 256.636 139.606 257.102 138.788 257.551C138.567 257.675 138.345 257.799 138.117 257.926C136.347 258.901 134.561 259.685 132.663 260.375C132.169 260.566 131.675 260.758 131.181 260.951C128.333 262.048 125.503 263.027 122.552 263.8C120.354 264.38 118.636 265.017 116.802 266.424C116.511 266.637 116.22 266.849 115.921 267.069C115.659 267.278 115.659 267.278 115.392 267.491C115.599 265.152 116.177 263.072 116.89 260.842C117.69 258.278 118.401 255.732 118.961 253.104C120.271 247.139 122.38 241.357 124.29 235.568C124.674 234.402 125.053 233.234 125.432 232.067C125.676 231.318 125.92 230.57 126.165 229.822C126.322 229.339 126.322 229.339 126.482 228.845C127.088 227.008 127.766 225.224 128.527 223.446C128.916 222.268 128.733 221.355 128.434 220.171C128.368 219.826 128.303 219.482 128.235 219.126C128.185 218.884 128.134 218.642 128.081 218.392Z" fill="#F79476"/>
<path d="M110.457 167.871C111.162 168.226 111.162 168.226 111.579 169.472C111.729 170.005 111.877 170.538 112.021 171.073C112.177 171.629 112.333 172.186 112.49 172.742C112.602 173.142 112.602 173.142 112.716 173.551C112.957 174.388 113.231 175.21 113.519 176.031C113.873 177.065 114.103 178.068 114.29 179.145C114.723 181.526 115.605 183.758 116.449 186.016C116.217 186.016 115.984 186.016 115.744 186.016C115.705 186.209 115.665 186.402 115.624 186.601C115.201 188.6 114.671 190.54 114.067 192.489C113.875 193.119 113.683 193.749 113.491 194.379C113.392 194.705 113.292 195.031 113.189 195.367C110.394 204.527 107.963 213.702 106.031 223.09C105.529 225.515 104.966 227.923 104.399 230.334C103.709 233.288 103.126 236.23 102.694 239.234C102.458 240.866 102.162 242.465 101.8 244.076C101.355 246.081 101.07 248.071 100.836 250.109C100.591 252.241 100.256 254.35 99.883 256.462C99.0704 255.231 98.89 254.128 98.6494 252.704C98.5785 252.32 98.5785 252.32 98.5063 251.929C98.3053 250.834 98.126 249.757 98.0201 248.648C97.7648 246.347 96.8362 245.256 95.0805 243.803C92.8084 242.11 90.3803 240.639 87.9718 239.155C86.6568 238.339 85.3637 237.491 84.067 236.646C83.3625 236.21 82.6517 235.83 81.9067 235.47C81.9067 234.648 81.9067 233.827 81.9067 232.98C84.3506 232.788 86.4936 233.493 88.8241 234.181C89.4157 234.35 89.4157 234.35 90.0192 234.522C92.9118 235.359 92.9118 235.359 94.12 235.851C95.0915 236.239 96.031 236.392 97.0632 236.538C96.367 234.643 95.6399 233.521 94.1553 232.112C92.2596 230.277 90.4178 228.433 88.9563 226.22C89.1557 226.116 89.3552 226.012 89.5607 225.906C89.8192 225.76 90.0778 225.614 90.3441 225.464C90.6018 225.323 90.8594 225.183 91.1248 225.038C91.8435 224.473 91.8435 224.473 92.0928 223.542C92.1431 221.804 91.7426 220.268 91.3134 218.593C91.2337 218.267 91.154 217.941 91.0718 217.605C90.7269 216.208 90.3666 214.818 89.9627 213.436C88.7692 209.113 91.1366 204.893 92.9216 201.048C93.0901 200.681 93.2586 200.314 93.4322 199.935C94.8203 196.926 96.2668 193.95 97.7682 190.997C99.246 191.228 100.681 191.535 102.13 191.909C102.504 192.004 102.877 192.1 103.262 192.199C103.543 192.272 103.823 192.345 104.113 192.42C103.446 189.768 103.446 189.768 102.483 187.217C101.728 185.347 101.262 183.786 102.03 181.84C102.613 180.758 103.239 179.718 103.892 178.678C104.118 178.304 104.344 177.93 104.576 177.545C105.029 176.798 105.484 176.053 105.943 175.309C106.653 174.156 107.342 172.992 108.028 171.825C108.813 170.489 109.604 169.163 110.457 167.871Z" fill="#B26535"/>
<path d="M143.082 51.7156C143.775 52.9158 143.699 53.9462 143.612 55.286C143.536 57.7773 143.785 59.8426 144.648 62.2016C144.768 62.5319 144.887 62.8621 145.011 63.2023C146.987 68.2701 149.494 72.4102 153.107 76.4331C153.57 76.9811 154.033 77.5295 154.495 78.0787C155.252 78.9738 156.034 79.6631 156.984 80.3468C156.317 83.0006 155.095 84.9453 153.459 87.1068C153.198 87.481 152.936 87.8553 152.666 88.2408C148.698 92.3372 142.2 94.857 136.572 94.9591C136.213 94.9509 135.853 94.9426 135.483 94.9341C133.981 91.178 132.62 87.4723 131.606 83.5489C131.454 83.0261 131.454 83.0261 131.299 82.4926C130.477 79.5392 130.307 76.6359 130.196 73.5868C129.963 73.5868 129.731 73.5868 129.491 73.5868C129.192 69.074 129.04 64.5661 128.94 60.0447C128.925 59.3866 128.91 58.7285 128.894 58.0705C128.857 56.4827 128.821 54.8948 128.786 53.307C130.183 52.9987 131.581 52.6949 132.979 52.3949C133.453 52.2925 133.928 52.189 134.401 52.0843C141.203 50.5831 141.203 50.5831 143.082 51.7156Z" fill="#F79577"/>
<path d="M186.592 44.7683C187.381 45.9619 187.497 46.5547 187.65 47.9704C187.709 48.3873 187.709 48.3873 187.769 48.8126C187.884 50.1511 187.966 51.1207 187.12 52.2107C186.38 52.8495 185.61 53.4307 184.83 54.0188C183.18 55.5705 181.66 57.2319 180.191 58.9567C179.474 59.7914 178.738 60.607 178.001 61.4236C174.1 65.798 170.489 70.4876 167.165 75.3222C163.673 80.3932 163.673 80.3932 160.509 81.0586C158.462 81.3705 157.326 80.8246 155.711 79.6424C154.081 78.2506 152.711 76.6602 151.345 75.0103C151.079 74.7002 150.814 74.3902 150.541 74.0708C146.444 68.975 143.139 61.9577 143.216 55.3308C143.217 55.0673 143.219 54.8038 143.22 54.5323C143.225 53.8867 143.231 53.2412 143.238 52.5956C144.842 53.2274 146.394 53.9516 147.953 54.6873C152.729 56.7489 160.433 55.8888 165.188 54.0676C166.814 53.3957 168.403 52.6559 169.985 51.8854C170.714 51.5363 171.45 51.2097 172.19 50.8862C174.716 49.7614 177.164 48.464 179.624 47.2009C180.278 46.8655 180.932 46.5318 181.587 46.1984C181.973 46.0007 182.359 45.8029 182.757 45.5991C184.167 44.9398 185.028 44.7683 186.592 44.7683Z" fill="#FEFDFD"/>
<path d="M278.986 218.281C279.408 218.276 279.831 218.27 280.266 218.263C281.536 218.407 281.98 218.496 282.819 219.46C283.183 220.399 283.468 221.271 283.722 222.24C283.796 222.508 283.87 222.777 283.946 223.054C285.21 227.732 286.038 232.298 286.063 237.154C286.065 237.475 286.068 237.797 286.07 238.129C286.147 250.927 286.147 250.927 285.133 256.146C284.933 257.178 284.747 258.213 284.563 259.249C284.339 260.507 284.108 261.765 283.876 263.022C283.832 263.262 283.788 263.503 283.742 263.751C282.859 268.507 282.859 268.507 281.761 270.693C279.382 270.652 279.382 270.652 278.379 269.937C276.516 267.885 276.022 265.47 275.373 262.822C275.145 261.931 274.916 261.041 274.687 260.15C274.576 259.715 274.466 259.28 274.352 258.832C273.911 257.168 273.408 255.528 272.89 253.888C272.632 253.021 272.431 252.17 272.266 251.281C271.703 248.59 270.69 246.018 268.94 243.898C268.089 242.842 268.013 242.704 268.037 241.252C268.146 240.87 268.255 240.489 268.367 240.096C269.712 235.238 268.822 229.768 266.514 225.376C266.384 225.156 266.254 224.935 266.12 224.708C265.931 224.385 265.742 224.062 265.547 223.729C265.9 222.662 265.9 222.662 266.683 222.226C267.022 222.087 267.361 221.948 267.71 221.805C268.081 221.651 268.452 221.497 268.835 221.338C269.226 221.181 269.617 221.023 270.019 220.861C270.404 220.702 270.788 220.543 271.184 220.379C276.266 218.29 276.266 218.29 278.986 218.281Z" fill="#3D322B"/>
<path d="M267.662 242.586C269.868 243.53 270.69 245.701 271.583 247.834C272.2 249.464 272.632 251.115 273.017 252.815C273.245 253.742 273.5 254.643 273.777 255.556C274.227 257.048 274.629 258.549 275.017 260.059C275.133 260.503 275.249 260.948 275.368 261.405C275.547 262.094 275.726 262.783 275.899 263.473C276.553 266.076 277.07 268.047 278.941 269.982C278.941 270.334 278.941 270.686 278.941 271.049C260.68 271.049 242.418 271.049 223.603 271.049C225.186 269.451 225.186 269.451 226.571 269.108C226.872 269.029 227.172 268.95 227.482 268.869C227.801 268.788 228.12 268.708 228.449 268.625C232.991 267.399 237.093 265.677 241.144 263.245C241.931 262.866 241.931 262.866 243.341 262.866C243.341 262.631 243.341 262.396 243.341 262.154C243.564 262.042 243.786 261.929 244.016 261.813C248.093 259.666 251.746 256.87 255.325 253.971C255.62 253.736 255.915 253.5 256.219 253.257C260.282 249.965 264.014 246.335 267.662 242.586Z" fill="#FDFCFC"/>
<path d="M160.157 250.769C161.396 251.186 161.453 251.371 162.039 252.488C162.262 252.911 162.262 252.911 162.489 253.343C162.643 253.646 162.796 253.948 162.954 254.26C163.112 254.567 163.27 254.874 163.433 255.19C164.435 257.175 165.262 259.144 165.891 261.284C166.123 262.066 166.394 262.788 166.721 263.533C167.759 265.913 168.002 267.759 167.911 270.337C166.429 270.901 165.209 271.137 163.628 271.135C163.201 271.135 162.774 271.136 162.334 271.137C161.871 271.135 161.407 271.132 160.929 271.13C160.432 271.13 159.935 271.13 159.439 271.13C158.094 271.13 156.749 271.126 155.404 271.121C153.997 271.117 152.59 271.116 151.183 271.115C148.52 271.113 145.857 271.107 143.195 271.1C140.163 271.092 137.131 271.088 134.099 271.085C127.863 271.077 121.628 271.065 115.392 271.049C115.379 270.474 115.37 269.898 115.362 269.323C115.357 269.002 115.351 268.682 115.345 268.352C115.392 267.491 115.392 267.491 115.873 266.649C117.828 265.122 119.729 264.293 122.089 263.577C122.978 263.304 123.867 263.03 124.755 262.755C124.99 262.682 125.224 262.61 125.466 262.536C128.167 261.689 130.78 260.625 133.405 259.566C133.981 259.343 134.569 259.15 135.158 258.963C136.415 258.516 137.546 257.905 138.7 257.24C138.914 257.122 139.128 257.005 139.348 256.883C140.417 256.271 141.067 255.845 141.705 254.769C142.739 253.772 143.114 253.855 144.514 253.847C145.315 253.875 146.116 253.909 146.917 253.949C150.349 254.042 153.104 253.967 156.279 252.548C157.502 252.005 158.074 251.836 159.452 251.836C159.452 251.602 159.452 251.367 159.452 251.125C159.684 251.007 159.917 250.89 160.157 250.769Z" fill="#3E322B"/>
<path d="M266.018 223.934C266.664 224.885 267.107 225.793 267.53 226.865C267.672 227.219 267.815 227.574 267.962 227.939C268.838 230.379 269.192 232.45 269.182 235.026C269.188 235.321 269.193 235.616 269.199 235.921C269.202 239.211 268.771 241.931 266.505 244.412C265.9 245.012 265.286 245.604 264.666 246.188C264.346 246.499 264.027 246.81 263.698 247.131C261.578 249.176 259.406 251.091 257.088 252.904C256.389 253.503 255.691 254.103 254.995 254.705C252.971 256.411 250.843 257.87 248.628 259.308C247.833 259.839 247.041 260.374 246.249 260.909C245.632 261.324 245.015 261.739 244.398 262.154C243.949 260.795 244.25 260.375 244.729 259.041C246.402 253.367 246.446 244.155 244.046 238.672C243.97 238.162 243.904 237.651 243.848 237.138C243.191 233.556 240.76 230.257 238.759 227.287C239.001 227.271 239.244 227.255 239.494 227.239C246.389 226.774 252.99 225.968 259.711 224.339C260.597 224.126 261.484 223.924 262.375 223.729C262.64 223.669 262.905 223.609 263.178 223.548C264.366 223.328 264.996 223.239 266.018 223.934Z" fill="#F79476"/>
<path d="M124.145 26.2741C127.375 29.0658 129.398 32.1648 129.967 36.4502C130.171 40.1796 128.693 43.7233 126.323 46.547C123.331 49.5495 120.282 50.8968 116.097 50.9722C113.823 50.9602 112.043 50.6121 110.105 49.3933C109.741 49.1805 109.378 48.9677 109.003 48.7485C106.009 46.4487 103.631 43.5523 102.909 39.7254C102.374 35.2298 103.485 31.8531 106.165 28.249C110.833 23.0145 118.505 22.2144 124.145 26.2741Z" fill="#441B00"/>
<path d="M160.639 25.6696C164.017 27.771 166.166 30.5573 167.206 34.4503C167.714 38.4379 167.02 42.1791 164.629 45.4353C164.206 45.9339 163.773 46.4239 163.329 46.9029C163.144 47.1038 162.96 47.3047 162.77 47.5116C160.286 49.9214 157.164 50.9853 153.768 51.0167C149.735 50.9316 146.782 49.4228 143.943 46.5471C143.088 45.4199 142.433 44.2686 141.828 42.9892C141.708 42.7457 141.589 42.5022 141.466 42.2513C140.24 39.2568 140.236 35.1631 141.343 32.1377C143.228 28.1931 146.272 25.514 150.37 24.0116C154.153 23.1001 157.325 23.8039 160.639 25.6696Z" fill="#441A00"/>
<path d="M201.727 0.183472C202.172 0.181752 202.172 0.181752 202.626 0.179997C205.803 0.20715 208.485 0.858739 211.31 2.3182C211.554 2.4438 211.799 2.56941 212.05 2.69883C213.809 3.63537 215.463 4.60842 216.553 6.34304C216.883 7.56606 216.883 7.56606 216.905 8.47777C217.2 8.47295 217.2 8.47295 217.5 8.46804C219.573 8.54933 220.787 9.07152 222.267 10.5444C225.678 14.7622 225.419 20.4876 225.453 25.6445C225.458 26.2294 225.458 26.2294 225.463 26.826C225.461 27.1938 225.46 27.5615 225.458 27.9405C225.457 28.2694 225.457 28.5984 225.456 28.9373C225.36 29.8649 225.125 30.4503 224.66 31.2482C224.427 31.2482 224.194 31.2482 223.955 31.2482C223.905 31.0166 223.855 30.7851 223.804 30.5466C223.578 29.4976 223.348 28.4494 223.118 27.4012C223.039 27.0368 222.961 26.6725 222.881 26.297C222.803 25.9473 222.726 25.5976 222.647 25.2373C222.577 24.915 222.506 24.5926 222.434 24.2605C222.213 23.3368 222.213 23.3368 221.487 22.3535C220.43 22.1756 220.43 22.1756 219.372 22.3535C218.687 23.3915 218.508 23.9991 218.315 25.1998C217.049 24.098 216.258 22.9212 215.848 21.2861C215.767 20.0938 215.784 18.921 215.848 17.7282C215.382 17.5604 215.382 17.5604 214.907 17.3891C214.498 17.2369 214.089 17.0846 213.667 16.9277C213.262 16.7791 212.857 16.6305 212.44 16.4774C210.867 15.7703 209.795 15.1429 209.041 13.5477C208.961 13.2836 208.881 13.0194 208.798 12.7472C208.584 12.894 208.369 13.0407 208.148 13.192C206.138 14.529 204.098 15.7065 201.947 16.7943C201.705 16.9172 201.463 17.0401 201.214 17.1668C199.138 18.2004 197.72 18.4848 195.404 18.4398C195.288 19.2617 195.171 20.0836 195.052 20.9303C192.08 20.4483 190.513 18.9816 188.553 16.7498C187.228 14.8235 187.433 12.5052 187.65 10.2567C188.68 6.71412 191.522 3.59714 194.623 1.73031C197.11 0.557219 198.996 0.130988 201.727 0.183472Z" fill="#231207"/>
<path d="M119.291 18.7512C119.769 18.7548 120.247 18.758 120.725 18.7609C121.885 18.7693 123.044 18.7809 124.204 18.7957C123.739 19.0305 123.273 19.2653 122.794 19.5073C123.201 19.6981 123.608 19.8888 124.028 20.0854C129.303 22.7523 132.603 27.2199 134.467 32.7784C135.615 37.632 134.804 42.6665 132.399 46.9919C130.38 50.131 128.205 52.2803 124.909 54.0187C125.142 54.2535 125.374 54.4883 125.614 54.7302C119.787 56.5947 113.291 56.5927 107.748 53.9172C102.99 51.2888 100.195 47.0018 98.4732 41.9219C97.2744 37.6572 97.7954 32.6051 99.8831 28.7577C100.623 27.4905 101.43 26.3392 102.35 25.1999C102.544 24.9517 102.738 24.7036 102.937 24.448C104.386 22.7884 106.037 21.7875 107.968 20.797C108.315 20.6187 108.315 20.6187 108.669 20.4369C112.161 18.7449 115.455 18.7016 119.291 18.7512ZM106.14 28.4687C103.5 31.6868 102.626 34.7646 102.842 38.8921C103.206 42.5274 105.221 45.5876 107.845 48.0273C111.234 50.6386 114.766 51.2166 118.917 50.8166C123.037 49.794 126.227 46.9276 128.434 43.345C130.131 39.8705 130.387 36.4923 129.152 32.8173C127.432 28.7897 124.616 26.1922 120.679 24.4883C120.345 24.3342 120.01 24.1801 119.666 24.0213C114.394 22.8507 109.795 24.6062 106.14 28.4687Z" fill="#A8643A"/>
<path d="M129.491 223.374C130.616 223.941 130.75 225.123 131.143 226.264C131.842 228.223 132.602 230.105 133.5 231.979C137.598 240.528 137.598 240.528 137.598 242.586C135.558 242.623 133.617 242.583 131.606 242.23C131.606 242.465 131.606 242.7 131.606 242.942C131.892 243.029 132.178 243.116 132.473 243.206C133.965 243.741 135.35 244.399 136.761 245.121C137.025 245.247 137.29 245.372 137.562 245.502C139.255 246.374 140.161 247.2 140.906 248.983C141.218 250.017 141.259 250.938 141.211 252.014C141.198 252.385 141.185 252.756 141.172 253.137C141.156 253.413 141.139 253.688 141.123 253.971C135.594 254.096 135.594 254.096 132.919 253.442C130.752 253.031 128.518 253.009 126.319 252.904C127.491 254.219 128.788 255.046 130.284 255.928C130.519 256.068 130.753 256.209 130.995 256.353C132.577 257.291 134.174 258.165 135.835 258.952C135.835 259.07 135.835 259.187 135.835 259.308C135.643 259.371 135.451 259.434 135.252 259.499C133.594 260.049 131.956 260.637 130.325 261.264C127.513 262.344 124.707 263.283 121.785 264.014C119.98 264.481 118.448 265.182 116.802 266.068C118.373 258.715 120.111 251.354 122.582 244.254C123.176 242.539 123.661 240.801 124.138 239.05C125.033 235.794 126.057 232.584 127.112 229.377C127.189 229.139 127.267 228.901 127.347 228.656C127.57 227.976 127.795 227.296 128.02 226.617C128.151 226.223 128.281 225.829 128.416 225.423C128.786 224.441 128.786 224.441 129.491 223.374Z" fill="#B96A39"/>
<path d="M208.798 12.7473C208.994 13.0702 209.191 13.3931 209.393 13.7257C211.057 16.0871 213.54 16.6594 216.2 17.3726C216.18 17.6138 216.159 17.855 216.138 18.1036C216.009 20.7987 216.582 22.5499 217.962 24.8441C218.13 24.4405 218.297 24.0369 218.469 23.6211C219.02 22.3536 219.02 22.3536 219.372 21.9978C220.386 21.8866 220.386 21.8866 221.487 21.9978C222.487 23.0465 222.794 24.0908 223.117 25.489C223.202 25.8435 223.286 26.198 223.373 26.5633C223.8 28.6684 224.023 30.7228 224.065 32.8715C224.084 33.5437 224.084 33.5437 224.105 34.2294C223.878 36.1714 222.904 37.2352 221.663 38.6753C220.319 39.7444 218.832 39.6753 217.182 39.6093C215.81 39.3608 215.235 38.7794 214.438 37.6524C214.089 37.3002 214.089 37.3002 213.733 36.9409C212.068 36.9759 210.984 37.4096 209.525 38.2084C207.835 39.0986 206.815 39.3624 204.921 39.0756C203.775 38.4307 203.775 38.4307 202.806 37.6524C202.337 37.2956 201.867 36.9396 201.396 36.5851C201.88 36.3402 201.88 36.3402 202.374 36.0903C202.797 35.87 203.22 35.6495 203.643 35.4288C203.856 35.3219 204.068 35.215 204.287 35.105C205.169 34.6402 205.869 34.2438 206.466 33.4289C207 31.5669 207.158 29.3767 206.296 27.607C204.7 25.5959 202.72 24.8641 200.241 24.5842C199.576 24.5258 198.911 24.4716 198.246 24.4216C197.733 24.3779 197.733 24.3779 197.21 24.3333C196.373 24.2626 195.536 24.1958 194.699 24.1325C195.048 24.0151 195.397 23.8977 195.756 23.7767C195.535 22.72 195.535 22.72 195.051 21.642C194.167 21.1299 194.167 21.1299 193.289 20.9304C193.754 20.813 194.22 20.6956 194.699 20.5746C194.815 19.7528 194.932 18.9309 195.051 18.0841C195.437 18.1135 195.822 18.1428 196.219 18.1731C200.093 18.1593 204.014 15.7489 207.058 13.5034C208.093 12.7473 208.093 12.7473 208.798 12.7473Z" fill="#F59476"/>
<path d="M166.148 19.863C168.915 20.0762 171.63 20.4474 174.366 20.9082C175.148 21.0367 175.931 21.1651 176.713 21.2931C177.083 21.354 177.453 21.4148 177.834 21.4775C181.375 22.0579 184.909 22.4892 188.484 22.786C189.991 22.9183 191.448 23.1046 192.928 23.4237C195.067 23.8813 197.215 24.0143 199.394 24.145C201.958 24.3467 204.339 25.0237 206.154 26.9788C207.283 28.4197 207.262 29.8342 207.248 31.6165C206.932 33.1852 206.332 34.3118 205.004 35.2409C204.284 35.6486 203.555 36.0108 202.806 36.3627C202.555 36.4888 202.304 36.6149 202.046 36.7449C200.741 37.3812 200.075 37.6524 198.576 37.6524C198.524 37.3937 198.473 37.1351 198.419 36.8686C197.521 32.8037 195.986 29.1625 192.937 26.2672C191.831 25.7093 190.62 25.7756 189.412 25.9114C188.635 26.2476 188.635 26.2476 188.002 26.623C187.936 29.823 187.897 32.7582 188.707 35.8735C188.882 37.7868 188.882 37.7868 188.178 38.6753C188.004 38.8074 187.829 38.9395 187.649 39.0756C186.69 37.9689 186.272 36.8595 185.832 35.4829C185.484 34.6905 185.163 34.2625 184.477 33.7388C184.012 33.7388 183.547 33.7388 183.067 33.7388C182.646 37.0852 183.878 39.6496 185.182 42.6334C185.42 43.2253 185.656 43.8179 185.887 44.4124C185.654 44.4124 185.422 44.4124 185.182 44.4124C185.182 44.6472 185.182 44.882 185.182 45.124C184.979 45.2006 184.775 45.2773 184.566 45.3563C181.635 46.4968 178.88 47.939 176.095 49.3997C175.731 49.587 175.368 49.7744 174.993 49.9674C174.501 50.2249 174.501 50.2249 173.999 50.4876C173.734 50.5962 173.47 50.7047 173.198 50.8166C172.965 50.6991 172.733 50.5817 172.493 50.4608C172.806 50.125 172.806 50.125 173.125 49.7825C176.945 45.6063 179.01 41.5746 178.912 35.747C178.569 31.4128 177.376 27.4385 174.211 24.3771C171.833 22.3987 169.069 21.1534 166.148 20.2188C166.148 20.1014 166.148 19.984 166.148 19.863Z" fill="#D0743B"/>
<path d="M226.069 84.2607C227.08 84.4648 227.43 84.5672 228.184 85.3281C227.765 95.3223 220.275 105.271 213.303 111.81C207.872 116.637 207.872 116.637 206.331 116.637C205.559 115.037 204.788 113.437 204.018 111.836C203.757 111.293 203.495 110.751 203.234 110.208C199.134 101.705 199.134 101.705 197.827 98.0253C197.348 96.6811 196.864 95.3848 196.2 94.1186C195.756 93.1554 195.756 93.1554 196.109 92.0881C196.339 92.3284 196.569 92.5687 196.806 92.8163C200.338 96.4552 202.998 97.9988 208.137 98.2699C213.238 98.2133 217.669 94.8753 221.135 91.3765C223.08 89.1831 224.643 86.8233 226.069 84.2607Z" fill="#FE3E03"/>
<path d="M158.394 215.902C158.698 218.538 158.817 221.155 158.888 223.807C159.061 229.196 159.517 234.549 160.002 239.918C160.126 241.314 160.249 242.71 160.372 244.107C160.448 244.965 160.525 245.823 160.602 246.681C160.653 247.254 160.653 247.254 160.705 247.839C160.736 248.174 160.766 248.509 160.797 248.855C160.861 249.702 160.861 249.702 160.861 250.769C160.396 250.886 159.931 251.004 159.452 251.125C159.452 251.36 159.452 251.594 159.452 251.836C159.219 251.836 158.986 251.836 158.747 251.836C158.726 251.612 158.705 251.387 158.683 251.155C157.687 238.251 157.687 238.251 151.966 227.055C151.279 226.525 150.71 226.303 149.884 226.049C149.603 225.959 149.322 225.87 149.033 225.778C148.749 225.689 148.465 225.6 148.172 225.508C144.56 224.298 141.102 222.918 137.73 221.127C137.44 220.974 137.15 220.82 136.851 220.661C134.826 219.556 134.826 219.556 134.426 218.748C134.65 218.745 134.874 218.742 135.105 218.738C139.792 218.652 144.407 218.37 149.054 217.725C149.686 217.639 149.686 217.639 150.332 217.551C152.5 217.234 154.551 216.814 156.63 216.109C157.337 215.902 157.337 215.902 158.394 215.902Z" fill="#FD4006"/>
<path d="M129.844 71.8081C130.621 72.5931 130.8 73.1088 131.165 74.143C132.603 77.8435 135.594 82.6998 139.228 84.5275C139.817 84.7477 139.817 84.7477 140.418 84.9722C140.418 85.2071 140.418 85.4419 140.418 85.6838C142.744 85.8012 145.071 85.9186 147.467 86.0396C147.467 85.8048 147.467 85.57 147.467 85.328C147.867 85.1959 148.267 85.0639 148.679 84.9278C150.981 84.0518 152.959 82.7271 154.627 80.9029C154.94 80.6021 155.252 80.3012 155.574 79.9912C156.339 80.1121 156.339 80.1121 156.984 80.347C156.318 83.0008 155.095 84.9455 153.46 87.107C153.198 87.4812 152.936 87.8555 152.667 88.241C148.698 92.3374 142.2 94.8572 136.572 94.9593C136.213 94.9511 135.854 94.9428 135.483 94.9343C133.982 91.1789 132.616 87.4732 131.606 83.5491C131.509 83.2005 131.412 82.852 131.311 82.4929C130.389 79.0623 129.755 75.3737 129.844 71.8081Z" fill="#FE3F05"/>
<path d="M190.117 176.765C190.469 177.477 190.469 177.477 190.229 178.323C190.099 178.672 189.969 179.02 189.835 179.38C189.623 179.956 189.623 179.956 189.407 180.545C189.256 180.949 189.105 181.353 188.949 181.769C188.074 184.116 187.229 186.401 186.743 188.864C186.505 189.984 186.128 191.05 185.755 192.131C184.986 194.386 184.323 196.654 183.701 198.955C183.42 199.892 183.42 199.892 183.067 200.247C182.57 200.262 182.072 200.251 181.575 200.229C181.111 200.209 181.111 200.209 180.637 200.189C174.796 199.884 169.009 199.468 164.034 195.978C164.034 195.743 164.034 195.508 164.034 195.266C165.26 194.536 166.401 194.383 167.801 194.177C172.986 193.246 177.351 190.091 181.305 186.727C181.624 186.46 181.943 186.192 182.272 185.916C184.334 184.119 186.011 182.158 187.65 179.967C188.119 179.359 188.589 178.751 189.06 178.144C189.412 177.685 189.765 177.225 190.117 176.765Z" fill="#30231B"/>
<path d="M244.046 237.249C244.572 238.045 245.004 238.784 245.427 239.631C247.538 244.416 247.538 244.416 251.095 247.923C253.2 248.116 254.493 247.63 256.294 246.655C256.542 246.526 256.79 246.396 257.045 246.262C259.133 245.151 261.121 243.917 263.08 242.586C263.55 242.27 264.021 241.955 264.492 241.64C265.786 240.773 267.077 239.901 268.367 239.028C268.782 240.287 268.591 240.926 268.107 242.136C267.201 243.777 265.822 245.009 264.49 246.3C264.187 246.599 263.884 246.898 263.572 247.206C261.496 249.236 259.369 251.113 257.088 252.904C256.389 253.503 255.691 254.103 254.995 254.705C252.971 256.411 250.843 257.869 248.628 259.308C247.833 259.839 247.041 260.374 246.249 260.909C245.632 261.324 245.015 261.739 244.398 262.154C243.949 260.795 244.25 260.375 244.729 259.041C246.416 253.32 246.404 244.213 244.046 238.672C244.046 238.203 244.046 237.733 244.046 237.249Z" fill="#FD3F05"/>
<path d="M89.3088 226.576C90.011 227.098 90.011 227.098 90.6747 227.821C90.9169 228.081 91.159 228.342 91.4085 228.61C91.6462 228.878 91.8838 229.146 92.1286 229.422C92.3408 229.66 92.553 229.899 92.7716 230.145C93.1788 230.61 93.5823 231.079 93.9819 231.551C94.4112 232.052 94.8509 232.545 95.2982 233.03C95.5245 233.278 95.7507 233.525 95.9839 233.78C96.1906 234.002 96.3973 234.224 96.6103 234.453C97.0633 235.115 97.0633 235.115 97.0633 236.538C94.475 236.339 92.1584 235.731 89.6833 234.959C87.1068 234.162 84.5623 233.454 81.9068 232.98C81.7905 233.684 81.6742 234.389 81.5544 235.115C79.8709 234.53 78.4547 233.597 76.9722 232.624C77.1743 231.604 77.2758 231.25 78.0296 230.489C80.4486 228.862 83.1085 228.049 85.8818 227.227C88.3367 226.47 88.3367 226.47 89.3088 226.576Z" fill="#FBF7F4"/>
<path d="M43.4868 140.475C44.6549 141.808 45.1484 143.341 45.7339 144.989C45.843 145.292 45.9521 145.596 46.0646 145.908C46.7962 147.971 47.4388 150.043 48.0255 152.153C48.698 154.533 49.4899 156.869 50.2793 159.212C51.7672 163.633 53.0606 168.066 54.1719 172.601C54.5781 174.219 55.0276 175.825 55.471 177.433C57.2518 183.964 58.7224 190.572 60.1883 197.181C60.6865 199.426 61.1902 201.67 61.7123 203.91C61.8077 204.32 61.9031 204.731 62.0015 205.153C62.1785 205.913 62.3569 206.672 62.5371 207.43C63.0501 209.635 63.4415 211.836 63.7674 214.077C64.0059 215.706 64.2869 217.327 64.5693 218.948C64.659 219.467 64.659 219.467 64.7504 219.996C65.082 221.908 65.4192 223.819 65.7617 225.729C69.6835 247.621 69.6835 247.621 69.5714 255.243C69.5703 256.205 69.611 257.092 69.7463 258.041C69.955 259.542 69.9538 260.998 69.9225 262.51C69.8062 262.51 69.6899 262.51 69.5701 262.51C69.5436 262.266 69.5171 262.021 69.4898 261.77C69.2167 259.256 68.94 256.743 68.6603 254.231C68.5669 253.392 68.4739 252.553 68.3815 251.714C67.8988 247.357 67.3408 243.028 66.5858 238.71C66.1957 236.466 65.8677 234.217 65.5565 231.96C65.0102 228.028 64.3422 224.123 63.644 220.216C63.5825 219.87 63.521 219.524 63.4576 219.167C63.0318 216.774 62.6013 214.381 62.1681 211.988C62.1175 211.708 62.0669 211.428 62.0148 211.14C60.9177 205.074 59.6454 199.073 58.1752 193.087C57.5195 190.404 56.9399 187.705 56.3865 184.999C56.0286 183.253 56.0286 183.253 55.4669 181.569C55.1366 180.725 54.9686 179.981 54.8032 179.092C54.3685 176.783 53.7414 174.536 53.1138 172.274C52.9866 171.813 52.8593 171.353 52.7321 170.893C52.4749 169.965 52.2166 169.036 51.9574 168.108C51.6381 166.963 51.323 165.816 51.0086 164.669C49.5048 159.258 47.701 153.959 45.8729 148.653C45.5472 147.706 45.2219 146.759 44.8967 145.812C44.751 145.388 44.6054 144.965 44.4553 144.528C44.3261 144.147 44.1968 143.765 44.0637 143.371C43.9514 143.041 43.839 142.711 43.7232 142.371C43.4868 141.542 43.4868 141.542 43.4868 140.475Z" fill="#F4DED0"/>
<path d="M115.745 186.016C115.977 186.016 116.21 186.016 116.45 186.016C116.239 186.906 116.026 187.795 115.811 188.684C115.752 188.932 115.694 189.18 115.634 189.435C115.269 190.934 114.814 192.352 114.262 193.79C113.709 195.303 113.28 196.854 112.837 198.402C112.677 198.959 112.677 198.959 112.514 199.528C110.404 206.959 108.624 214.445 107.027 222.003C106.7 223.54 106.358 225.073 106.005 226.605C104.897 231.429 104.04 236.235 103.361 241.139C102.995 243.776 102.519 246.38 101.998 248.99C101.906 249.458 101.814 249.926 101.723 250.394C101.465 251.706 101.203 253.016 100.941 254.327C100.801 255.031 100.661 255.735 100.522 256.44C100.427 256.921 100.331 257.403 100.236 257.885C100.119 257.885 100.003 257.885 99.8833 257.885C99.7965 255.642 99.9727 253.599 100.412 251.4C100.584 250.437 100.674 249.499 100.742 248.523C100.894 246.638 101.279 244.853 101.692 243.01C101.996 241.594 102.214 240.169 102.433 238.738C103.113 234.31 104.057 229.976 105.111 225.627C105.225 225.152 105.34 224.677 105.454 224.202C105.514 223.955 105.573 223.708 105.635 223.454C106.015 221.853 106.362 220.248 106.69 218.635C107.829 213.043 109.203 207.574 110.815 202.102C111.189 200.833 111.558 199.562 111.926 198.291C113.124 194.173 114.348 190.07 115.745 186.016Z" fill="#EEDED3"/>
<path d="M154.165 115.926C155.304 116.15 156.433 116.399 157.56 116.68C161.843 117.724 165.986 118.397 170.378 118.772C170.378 121.12 170.378 123.468 170.378 125.888C168.555 125.52 167.997 125.155 166.567 124.042C163.879 122.008 160.993 120.348 158.073 118.678C157.72 118.475 157.366 118.271 157.002 118.062C156.685 117.881 156.367 117.701 156.04 117.515C155.3 117.043 154.749 116.579 154.165 115.926Z" fill="#F8F7F6"/>
<path d="M141.123 252.192C141.588 252.427 142.053 252.662 142.533 252.904C142.419 254.244 142.062 255.049 141.071 255.962C137.184 258.941 137.184 258.941 135.198 258.963C133.596 258.441 132.272 257.593 130.857 256.684C130.576 256.508 130.294 256.332 130.005 256.151C127.307 254.45 127.307 254.45 126.319 253.616C126.319 253.381 126.319 253.146 126.319 252.904C131.847 252.779 131.847 252.779 134.522 253.433C136.689 253.844 138.924 253.867 141.123 253.971C141.123 253.384 141.123 252.797 141.123 252.192Z" fill="#F9F4F1"/>
<path d="M129.139 222.306C129.608 223.609 129.367 224.372 128.906 225.654C128.773 226.032 128.639 226.411 128.502 226.8C128.356 227.203 128.21 227.606 128.059 228.021C127.762 228.862 127.466 229.702 127.171 230.543C127.025 230.958 126.879 231.373 126.728 231.8C125.902 234.18 125.168 236.589 124.432 239C124.219 239.691 124.001 240.38 123.783 241.07C121.769 247.442 119.893 253.877 118.436 260.403C118.251 261.226 118.059 262.046 117.859 262.866C117.782 263.183 117.706 263.5 117.626 263.826C117.5 264.301 117.5 264.301 117.371 264.787C117.296 265.074 117.221 265.362 117.144 265.659C116.728 266.589 116.234 266.949 115.392 267.491C115.599 265.152 116.177 263.072 116.89 260.842C117.69 258.278 118.401 255.732 118.961 253.104C120.271 247.139 122.38 241.357 124.29 235.568C124.674 234.402 125.053 233.234 125.432 232.067C125.676 231.318 125.92 230.57 126.165 229.822C126.322 229.339 126.322 229.339 126.482 228.845C128.391 223.061 128.391 223.061 129.139 222.306Z" fill="#F1E2D9"/>
<path d="M43.4868 140.475C44.6549 141.808 45.1484 143.341 45.7339 144.989C45.843 145.292 45.9521 145.596 46.0646 145.908C46.7962 147.971 47.4388 150.043 48.0256 152.153C48.698 154.533 49.4899 156.869 50.2793 159.212C51.7672 163.633 53.0606 168.066 54.1719 172.601C54.5781 174.219 55.0275 175.825 55.471 177.433C56.2551 180.304 56.9819 183.187 57.674 186.083C57.7608 186.444 57.8476 186.805 57.937 187.177C58.1811 188.211 58.4156 189.247 58.6433 190.285C58.723 190.647 58.8028 191.008 58.8849 191.38C58.956 191.729 59.0271 192.078 59.1004 192.438C59.1653 192.751 59.2301 193.064 59.297 193.386C59.3482 194.199 59.3482 194.199 58.6433 195.266C58.5616 194.888 58.4798 194.509 58.3956 194.119C58.091 192.709 57.7845 191.301 57.4773 189.892C57.3448 189.283 57.2128 188.674 57.0814 188.065C56.8921 187.187 56.7008 186.31 56.5092 185.434C56.4511 185.163 56.3931 184.892 56.3333 184.612C56.0311 183.239 55.6508 181.976 55.1185 180.679C54.9992 180.153 54.8943 179.624 54.8032 179.092C54.3685 176.783 53.7414 174.536 53.1138 172.274C52.9866 171.813 52.8593 171.353 52.7321 170.893C52.4749 169.965 52.2166 169.036 51.9574 168.108C51.6381 166.963 51.323 165.816 51.0086 164.669C49.5048 159.258 47.701 153.959 45.8729 148.653C45.5472 147.706 45.2219 146.759 44.8967 145.812C44.751 145.388 44.6054 144.965 44.4553 144.528C44.3261 144.147 44.1968 143.765 44.0637 143.371C43.9514 143.041 43.839 142.711 43.7232 142.371C43.4868 141.542 43.4868 141.542 43.4868 140.475Z" fill="#EFD0BD"/>
<path d="M136.188 42.6335C136.421 42.6335 136.654 42.6335 136.893 42.6335C137.047 43.0463 137.047 43.0463 137.204 43.4674C138.27 46.2017 139.341 48.7873 141.828 50.4609C141.828 50.6957 141.828 50.9305 141.828 51.1724C133.022 52.7247 133.022 52.7247 129.491 53.3072C130.666 52.3207 131.852 51.5052 133.17 50.7277C135.728 49.096 135.728 49.096 137.246 46.5472C137.099 45.1525 136.712 43.9285 136.188 42.6335Z" fill="#C9743F"/>
<path d="M131.253 20.5747C133.795 20.7453 136.312 21.0755 138.832 21.4419C139.299 21.5072 139.299 21.5072 139.777 21.5737C140.072 21.6178 140.367 21.6619 140.671 21.7074C141.069 21.7655 141.069 21.7655 141.475 21.8247C142.18 21.9979 142.18 21.9979 143.238 22.7094C143.055 22.8603 142.871 23.0112 142.683 23.1667C141.054 24.5492 139.819 25.8922 138.655 27.6905C138.136 27.0051 137.634 26.3254 137.181 25.5933C135.852 23.5414 134.228 22.5548 132.104 21.41C131.824 21.2517 131.543 21.0935 131.253 20.9305C131.253 20.8131 131.253 20.6957 131.253 20.5747Z" fill="#CE7741"/>
<path d="M115.745 186.016C115.977 186.016 116.21 186.016 116.45 186.016C116.239 186.906 116.025 187.795 115.811 188.684C115.752 188.932 115.694 189.18 115.634 189.435C115.269 190.934 114.814 192.352 114.261 193.79C113.709 195.303 113.28 196.854 112.837 198.402C112.677 198.959 112.677 198.959 112.514 199.528C110.209 207.644 108.313 215.829 106.58 224.085C105.732 222.801 105.848 222.549 106.124 221.085C106.232 220.51 106.232 220.51 106.342 219.923C106.42 219.535 106.499 219.148 106.58 218.748C106.649 218.411 106.717 218.073 106.787 217.725C108.135 211.394 109.944 205.188 111.757 198.98C111.873 198.582 111.989 198.184 112.109 197.774C112.447 196.619 112.787 195.464 113.127 194.309C113.228 193.967 113.328 193.624 113.432 193.272C114.154 190.836 114.937 188.424 115.745 186.016Z" fill="#E7CFC1"/>
<path d="M227.48 269.626C226.898 269.861 226.317 270.096 225.717 270.338C252.063 270.514 252.063 270.514 278.941 270.693C278.941 270.811 278.941 270.928 278.941 271.049C260.68 271.049 242.418 271.049 223.603 271.049C225.597 269.036 225.597 269.036 227.48 269.626Z" fill="#F7F2EF"/>
<path d="M43.4868 140.475C44.6549 141.808 45.1484 143.341 45.7339 144.989C45.843 145.292 45.9521 145.596 46.0646 145.908C46.7947 147.967 47.4372 150.034 48.0217 152.14C48.5184 153.9 49.074 155.637 49.6538 157.371C49.7329 157.608 49.812 157.845 49.8935 158.089C50.2938 159.285 50.6972 160.48 51.104 161.673C51.2529 162.116 51.4018 162.559 51.5552 163.015C51.6898 163.41 51.8244 163.806 51.9631 164.214C52.3133 165.431 52.5025 166.613 52.6512 167.871C52.3022 168.047 52.3022 168.047 51.9462 168.227C51.8353 167.826 51.8353 167.826 51.7222 167.417C50.1189 161.66 48.409 155.952 46.5269 150.281C46.4359 150.007 46.3449 149.732 46.2511 149.449C45.9888 148.659 45.7254 147.87 45.4612 147.081C45.3842 146.85 45.3072 146.62 45.2279 146.382C44.8291 145.199 44.4073 144.029 43.9582 142.864C43.4868 141.542 43.4868 141.542 43.4868 140.475Z" fill="#E9BDA2"/>
<path d="M131.606 242.23C132.326 242.271 133.045 242.317 133.765 242.364C134.166 242.388 134.566 242.413 134.979 242.439C136.203 242.588 137.184 242.772 138.303 243.298C138.741 244.068 138.741 244.068 138.964 244.943C139.043 245.234 139.122 245.525 139.203 245.824C139.281 246.159 139.281 246.159 139.36 246.5C137.563 245.956 135.957 245.18 134.294 244.32C134.034 244.188 133.775 244.055 133.507 243.919C132.873 243.594 132.239 243.268 131.606 242.942C131.606 242.707 131.606 242.472 131.606 242.23Z" fill="#F8EEE9"/>
<path d="M202.454 36.9407C203.445 37.6078 203.445 37.6078 204.216 38.3638C204.216 38.5986 204.216 38.8334 204.216 39.0754C203.751 39.0754 203.285 39.0754 202.806 39.0754C202.806 39.3102 202.806 39.545 202.806 39.787C201.755 40.3293 200.755 40.8328 199.634 41.2101C198.987 40.1087 198.702 39.2866 198.929 38.008C200.061 37.0609 200.996 36.6832 202.454 36.9407Z" fill="#FCF7F5"/>
<path d="M101.998 241.519C102.049 241.746 102.1 241.974 102.152 242.208C102.284 242.933 102.284 242.933 102.703 243.298C102.852 245.332 102.523 246.901 101.949 248.842C101.483 250.711 101.231 252.61 100.973 254.519C100.933 254.8 100.892 255.082 100.851 255.372C100.8 255.751 100.8 255.751 100.749 256.138C100.588 256.818 100.588 256.818 99.8833 257.885C99.7965 255.642 99.9727 253.599 100.412 251.4C100.584 250.437 100.674 249.499 100.742 248.523C100.927 246.141 101.464 243.842 101.998 241.519Z" fill="#E6CDBD"/>
<path d="M63.9304 218.392C64.9016 220.165 65.1705 222.094 65.5606 224.063C65.6402 224.462 65.7198 224.862 65.8018 225.273C66.321 228.001 66.6442 230.555 66.3977 233.335C65.3162 231.418 65.1423 229.209 64.7675 227.065C64.6462 226.406 64.6462 226.406 64.5224 225.735C64.0848 223.26 63.8067 220.906 63.9304 218.392Z" fill="#F8EAE1"/>
<path d="M120.679 198.824C121.737 201.137 121.737 201.137 121.737 202.738C120.25 202.567 119.341 202.323 118.212 201.315C118.348 200.319 118.494 199.955 119.247 199.269C119.974 198.824 119.974 198.824 120.679 198.824Z" fill="#F4EFEC"/>
<path d="M105.875 223.018C105.992 223.018 106.108 223.018 106.228 223.018C106.385 225.689 105.795 228.082 105.17 230.667C105.07 231.096 104.969 231.524 104.865 231.965C104.617 233.016 104.366 234.065 104.113 235.115C103.997 235.115 103.88 235.115 103.761 235.115C103.693 232.844 103.894 230.869 104.421 228.666C104.483 228.396 104.544 228.126 104.607 227.847C104.982 226.222 105.408 224.619 105.875 223.018Z" fill="#F2E6DE"/>
<path d="M62.1682 207.719C62.9955 208.972 63.0553 209.767 63.2256 211.255C63.2823 211.735 63.3397 212.216 63.3977 212.696C63.4266 212.936 63.4555 213.175 63.4853 213.422C63.6652 214.781 63.9285 216.127 64.188 217.473C64.2897 218.457 64.1713 219.217 63.9306 220.172C63.8142 220.172 63.6979 220.172 63.5781 220.172C61.8948 211.283 61.8948 211.283 62.1682 207.719Z" fill="#EDCBB6"/>
<path d="M162.271 53.3069C162.504 53.4243 162.737 53.5417 162.976 53.6627C162.627 53.8975 162.278 54.1323 161.919 54.3742C162.733 54.3742 163.547 54.3742 164.386 54.3742C160.272 56.6411 154.799 55.8692 150.287 55.7974C150.287 55.68 150.287 55.5626 150.287 55.4416C150.606 55.4394 150.606 55.4394 150.932 55.4372C156.425 55.4216 156.425 55.4216 161.55 53.6488C161.788 53.536 162.026 53.4231 162.271 53.3069Z" fill="#BA8667"/>
<path d="M123.852 20.5747C126.421 20.7368 128.559 23.0172 130.196 24.8442C130.921 25.7786 131.623 26.7282 132.311 27.6905C132.195 27.9253 132.078 28.1601 131.959 28.402C131.747 28.1048 131.747 28.1048 131.53 27.8016C129.399 24.9136 127.045 22.5763 123.852 20.9305C123.852 20.8131 123.852 20.6957 123.852 20.5747Z" fill="#AC6F49"/>
<path d="M115.744 186.016C115.977 186.016 116.21 186.016 116.449 186.016C114.732 193.267 114.732 193.267 113.277 195.978C112.838 194.649 113.077 194.176 113.507 192.861C113.699 192.264 113.699 192.264 113.896 191.655C114.033 191.24 114.171 190.824 114.312 190.397C114.448 189.977 114.585 189.558 114.725 189.126C115.062 188.088 115.402 187.052 115.744 186.016Z" fill="#DEBFAB"/>
<path d="M125.966 230.134C126.083 230.134 126.199 230.134 126.319 230.134C126.54 232.918 125.729 235.331 124.909 237.961C124.204 236.894 124.204 236.894 124.252 236.124C124.706 234.079 125.259 232.104 125.966 230.134Z" fill="#EDD8CC"/>
<path d="M121.031 245.788C121.65 246.723 121.746 247.137 121.599 248.272C121.499 248.648 121.399 249.025 121.296 249.413C121.151 249.982 121.151 249.982 121.004 250.562C120.679 251.481 120.679 251.481 119.974 251.836C119.741 252.189 119.509 252.541 119.269 252.904C119.497 250.431 120.277 248.143 121.031 245.788Z" fill="#ECD6C9"/>
<path d="M119.974 251.125C120.536 252.559 120.105 253.67 119.688 255.105C119.562 255.551 119.436 255.996 119.307 256.455C118.917 257.529 118.917 257.529 118.212 257.885C118.317 255.35 118.815 253.378 119.974 251.125Z" fill="#F5E9E3"/>
<path d="M166.148 19.863C166.766 19.9038 167.382 19.9492 167.999 19.9965C168.342 20.0212 168.686 20.046 169.04 20.0715C169.989 20.2134 170.614 20.4448 171.436 20.9304C171.319 21.0478 171.203 21.1652 171.083 21.2862C171.548 21.7558 172.014 22.2255 172.493 22.7093C172.252 22.6112 172.01 22.513 171.762 22.4119C170.621 21.9537 169.476 21.508 168.329 21.0638C167.92 20.9051 167.511 20.7464 167.089 20.583C166.779 20.4628 166.468 20.3426 166.148 20.2188C166.148 20.1014 166.148 19.984 166.148 19.863Z" fill="#CF8B60"/>
<path d="M38.5519 174.275C38.7846 174.392 39.0172 174.51 39.2569 174.631C37.7447 176.157 36.2326 177.683 34.6747 179.256C34.442 179.139 34.2094 179.021 33.9697 178.9C35.333 177.137 36.8561 175.711 38.5519 174.275Z" fill="#D78857"/>
<path d="M103.408 232.98C103.524 232.98 103.641 232.98 103.761 232.98C104.23 236.328 104.23 236.328 103.761 237.961C103.412 237.961 103.063 237.961 102.703 237.961C103.043 234.613 103.043 234.613 103.408 232.98Z" fill="#E3C7B6"/>
<path d="M63.2257 214.835C63.5746 215.011 63.5746 215.011 63.9306 215.191C64.3213 216.85 64.4043 218.525 63.9306 220.172C63.8143 220.172 63.698 220.172 63.5781 220.172C63.213 218.375 63.1895 216.658 63.2257 214.835Z" fill="#F2D9CA"/>
<path d="M125.966 230.134C126.082 230.134 126.199 230.134 126.319 230.134C126.407 232.846 126.407 232.846 125.614 234.047C125.381 234.047 125.148 234.047 124.909 234.047C125.258 232.756 125.607 231.464 125.966 230.134Z" fill="#E7CDBD"/>
<path d="M122.089 243.298C122.205 243.298 122.322 243.298 122.442 243.298C122.401 243.817 122.356 244.336 122.309 244.854C122.285 245.143 122.26 245.432 122.235 245.73C122.089 246.5 122.089 246.5 121.384 247.211C121.283 244.568 121.283 244.568 122.089 243.298Z" fill="#F7EFEA"/>
<path d="M66.3979 230.845C66.5142 230.845 66.6305 230.845 66.7504 230.845C66.8667 232.136 66.983 233.428 67.1028 234.759C66.7539 234.993 66.4049 235.228 66.0454 235.47C66.1617 233.944 66.278 232.418 66.3979 230.845Z" fill="#EECEB9"/>
<path d="M131.606 242.23C132.42 242.23 133.234 242.23 134.073 242.23C133.957 242.7 133.841 243.17 133.721 243.653C133.023 243.419 132.325 243.184 131.606 242.942C131.606 242.707 131.606 242.472 131.606 242.23Z" fill="#ECD6C8"/>
<path d="M107.638 214.123C108.62 215.61 108.27 216.31 107.99 218.037C107.008 216.55 107.357 215.85 107.638 214.123Z" fill="#DFBFAB"/>
</svg>
